<svg width="44" height="42" viewBox="0 0 44 42" fill="none" xmlns="http://www.w3.org/2000/svg">
<path d="M31.9016 15.6H33.7016C35.6111 15.6 37.4425 16.3586 38.7927 17.7088C40.143 19.0591 40.9016 20.8904 40.9016 22.8C40.9016 24.7096 40.143 26.5409 38.7927 27.8912C37.4425 29.2414 35.6111 30 33.7016 30H31.9016M31.9016 15.6H3.10156V31.8C3.10156 33.7096 3.86013 35.5409 5.21039 36.8912C6.56066 38.2414 8.392 39 10.3016 39H24.7016C26.6111 39 28.4425 38.2414 29.7927 36.8912C31.143 35.5409 31.9016 33.7096 31.9016 31.8V15.6ZM10.3016 3V8.4M17.5016 3V8.4M24.7016 3V8.4" stroke="#F8F7F3" stroke-width="5" stroke-linecap="round" stroke-linejoin="round"/>
</svg>
