<svg width="271" height="35" viewBox="0 0 271 35" fill="none" xmlns="http://www.w3.org/2000/svg">
<path d="M0.0999633 21.8889C0.0999633 14.4715 5.51834 9.52658 12.9357 9.52658C19.9849 9.52658 23.9303 14.1033 24.509 19.7321L17.5124 20.2055C16.9338 17.3122 15.5134 15.9445 13.0409 15.9445C10.4633 15.9445 8.67467 17.6804 8.67467 21.8889C8.67467 26.0973 10.4633 27.8333 13.0409 27.8333C15.5134 27.8333 16.9338 26.413 17.5124 23.5197L24.509 24.0457C23.9303 29.7271 19.9849 34.2512 12.9357 34.2512C5.51834 34.2512 0.0999633 29.3589 0.0999633 21.8889ZM27.768 10.1578H36.2901V33.6199H27.768V10.1578ZM27.7154 7.94841V0.478414H36.3427V7.94841H27.7154ZM41.7611 27.0968V16.0497H38.6048V10.7891L40.3408 10.5261C42.708 10.1578 43.4445 8.89531 44.0232 6.73848L44.8122 3.68736H50.178V10.1578H56.2803V16.0497H50.178V24.6244C50.178 26.6234 51.1249 27.4125 52.8609 27.4125C53.913 27.4125 55.0703 27.2021 56.4907 26.6234V32.147C54.7021 33.4621 52.6505 34.2512 49.4415 34.2512C45.4961 34.2512 41.7611 32.6204 41.7611 27.0968ZM59.7732 10.1578H68.2953V33.6199H59.7732V10.1578ZM59.7206 7.94841V0.478414H68.3479V7.94841H59.7206ZM82.3936 16.3127H72.1881V10.1578H92.7569V15.9445L82.1832 27.4651H93.0199V33.6199H71.9777V27.7807L82.3936 16.3127ZM112.971 25.2556L119.81 25.8869C118.6 31.2527 114.287 34.2512 108.079 34.2512C100.556 34.2512 95.1907 29.7271 95.1907 22.2571C95.1907 14.8397 100.662 9.52658 107.974 9.52658C115.812 9.52658 119.968 14.8923 119.968 21.2576V23.6249H103.502C103.713 26.5182 105.817 27.8859 108.395 27.8859C110.709 27.8859 112.182 27.0968 112.971 25.2556ZM103.608 19.5216H111.867C111.761 17.4174 110.394 15.6288 107.869 15.6288C105.133 15.6288 103.923 17.3122 103.608 19.5216ZM131.946 22.0993V33.6199H123.424V10.1578H131.946V13.6824C133.209 11.1047 135.997 9.52658 139.521 9.52658C145.939 9.52658 147.991 13.9981 147.991 18.8904V33.6199H139.469V21.1524C139.469 17.9435 138.574 16.2601 135.997 16.2601C133.103 16.2601 131.946 18.5747 131.946 22.0993Z" fill="#290755"/>
<path d="M168.917 10.6313L173.862 28.0437H174.073L179.386 10.6313H183.437L176.124 33.6199H171.916L167.024 16.4705H166.813L161.974 33.6199H157.765L150.4 10.6313H154.767L160.185 28.0437H160.395L165.235 10.6313H168.917ZM200.783 23.3618V22.2571L195.628 23.3618C191.998 24.1509 189.683 24.8348 189.683 27.6229C189.683 29.5693 190.998 31.0423 193.629 31.0423C197.679 31.0423 200.783 27.9911 200.783 23.3618ZM204.991 18.7852V29.0959C204.991 30.3058 205.675 30.8844 206.78 30.8844C207.306 30.8844 208.148 30.7266 208.779 30.3584V32.7256C207.99 33.5147 207.043 34.0934 205.254 34.0934C202.887 34.0934 201.204 32.3048 200.941 29.5693C199.678 32.2522 196.417 34.2512 192.682 34.2512C188.21 34.2512 185.317 31.8313 185.317 27.8859C185.317 23.5197 189.052 21.7311 194.575 20.6264L200.783 19.3638V18.4695C200.783 15.3132 198.942 13.3668 195.733 13.3668C192.419 13.3668 190.63 15.3132 189.946 17.9961L186.053 17.47C186.948 13.1564 190.367 10 195.785 10C201.572 10 204.991 12.9459 204.991 18.7852ZM212.212 0.478414H216.578V33.6199H212.212V0.478414ZM222.538 0.478414H226.904V33.6199H222.538V0.478414ZM250.329 25.4661L253.958 25.8869C252.801 31.0949 248.961 34.2512 243.227 34.2512C236.388 34.2512 231.391 29.6219 231.391 22.4675C231.391 15.208 236.388 10 243.017 10C250.329 10 254.064 15.208 254.064 21.468V23.204H235.757C235.967 27.6755 239.176 30.8318 243.28 30.8318C247.12 30.8318 249.382 28.9906 250.329 25.4661ZM235.862 20.3633H249.592C249.434 16.6809 247.383 13.3142 243.017 13.3142C238.861 13.3142 236.388 16.5757 235.862 20.3633ZM259.39 28.2542V13.7876H255.918V11.4204L257.391 11.1573C259.548 10.7365 260.022 9.68439 260.548 7.47496L261.232 4.26602H263.704V10.6313H270.175V13.7876H263.704V27.7281C263.704 29.7797 264.546 30.7266 266.545 30.7266C268.018 30.7266 269.543 30.0954 270.858 29.3589V32.3048C269.175 33.5673 267.492 34.2512 264.967 34.2512C261.705 34.2512 259.39 32.7256 259.39 28.2542Z" fill="#7B7AB9"/>
</svg>
