<svg width="166" height="202" viewBox="0 0 166 202" fill="none" xmlns="http://www.w3.org/2000/svg">
<path d="M96.2504 60.7618L80.4488 69.8848L72.8463 56.7168C70.7176 53.0298 67.3128 50.7818 62.9361 50.4995C59.0861 49.9131 55.0949 51.5151 52.8469 54.9199L5.65462 113.067C0.691525 116.635 -0.785317 123.808 2.2557 129.076L38.7479 192.282C43.9176 201.236 55.245 203.826 63.6726 198.96L147.948 150.304C156.902 145.134 159.796 134.334 154.626 125.379L121.175 67.4403C116.005 58.4861 105.205 55.592 96.2504 60.7618ZM62.3119 62.7989L69.9144 75.9669L35.1509 96.0376L62.3119 62.7989ZM144.092 131.462C145.612 134.095 144.499 138.249 141.866 139.77L57.5905 188.426C54.9569 189.947 50.8028 188.833 49.2823 186.2L12.7901 122.993L102.332 71.2962C104.966 69.7757 109.12 70.8888 110.641 73.5224L144.092 131.462Z" fill="#290755"/>
<path d="M59.8955 32.6167C66.2119 31.531 79.4962 29.2413 82.1017 28.7676V75.2526C82.1017 75.7263 70.6532 81.3717 64.9289 84.1351C63.2511 82.6547 59.2441 79.3978 56.6386 78.2134C53.3817 76.733 48.9404 60.4485 48.6443 58.968C48.4075 57.7837 50.5195 48.2104 51.6052 43.5717L59.8955 32.6167Z" fill="#F5F5F5"/>
<circle cx="77.7687" cy="56.3788" r="29.1839" transform="rotate(-19.7435 77.7687 56.3788)" fill="#F5F5F5" stroke="#290755" stroke-width="10.3235"/>
<circle cx="100.477" cy="58.2951" r="29.1839" transform="rotate(-19.7435 100.477 58.2951)" fill="#F5F5F5" stroke="#563087" stroke-width="10.3235"/>
<circle cx="121.527" cy="69.6147" r="29.1839" transform="rotate(-19.7435 121.527 69.6147)" fill="#F5F5F5" stroke="#833DDB" stroke-width="10.3235"/>
<path d="M108.453 65.4816C111.019 67.2581 116.329 71.048 117.039 71.9955C126.711 89.1683 146.233 123.869 146.944 125.29C147.832 127.067 151.089 135.061 151.681 138.614C152.273 142.167 57.5267 194.87 55.7502 194.87H48.6442L8.37695 119.665L108.453 65.4816Z" fill="#F5F5F5"/>
<path fill-rule="evenodd" clip-rule="evenodd" d="M96.2504 60.7617L80.4488 69.8848L5.65462 113.067C0.691525 116.635 -0.785317 123.808 2.2557 129.075L38.7479 192.282C43.9176 201.236 55.245 203.826 63.6726 198.96L147.948 150.304C156.902 145.134 159.796 134.334 154.626 125.379L121.175 67.4402C116.005 58.486 105.205 55.592 96.2504 60.7617ZM141.866 139.77C144.499 138.249 145.612 134.095 144.092 131.461L110.641 73.5223C109.12 70.8887 104.966 69.7756 102.332 71.2961L12.7901 122.993L49.2823 186.2C50.8028 188.833 54.9569 189.946 57.5905 188.426L141.866 139.77Z" fill="#290755"/>
<path d="M96.0429 135.606C98.7778 140.447 97.2813 146.469 92.2303 149.323C87.1793 152.177 81.2486 150.351 78.5137 145.51" stroke="#290755" stroke-width="9.54921" stroke-linecap="round"/>
<path d="M107.36 121.116C111.449 118.172 112.377 112.47 109.432 108.382C106.488 104.293 100.787 103.365 96.6979 106.309C92.6092 109.254 91.6814 114.955 94.6256 119.044C97.5699 123.133 103.271 124.06 107.36 121.116Z" fill="#290755"/>
<path d="M59.3181 149.35C63.4068 146.406 64.3346 140.704 61.3904 136.615C58.4461 132.527 52.7447 131.599 48.656 134.543C44.5672 137.487 43.6394 143.189 46.5836 147.278C49.5279 151.366 55.2293 152.294 59.3181 149.35Z" fill="#290755"/>
</svg>
