<svg width="33" height="33" viewBox="0 0 33 33" fill="none" xmlns="http://www.w3.org/2000/svg">
<path d="M16.4629 32.4629C25.2994 32.4629 32.4629 25.2994 32.4629 16.4629C32.4629 7.62634 25.2994 0.462891 16.4629 0.462891C7.62634 0.462891 0.462891 7.62634 0.462891 16.4629C0.462891 25.2994 7.62634 32.4629 16.4629 32.4629Z" fill="white"/>
<path d="M16.4631 31.3353C24.6776 31.3353 31.3368 24.6761 31.3368 16.4616C31.3368 8.24695 24.6776 1.58789 16.4631 1.58789C8.24856 1.58789 1.58936 8.24709 1.58936 16.4616C1.58936 24.6761 8.24856 31.3353 16.4631 31.3353Z" fill="url(#paint0_linear_3895_80)"/>
<g style="mix-blend-mode:soft-light" opacity="0.25">
<path d="M16.7675 26.0044C16.7675 26.0044 16.4244 23.5497 16.6837 22.1622L15.8832 22.1317C15.8832 22.1317 16.3102 25.1354 15.4944 25.7833L16.7675 26.0044ZM24.6881 14.6839C23.2017 15.4386 21.5321 15.8959 18.4524 20.4012H17.6672L17.4385 19.2045C17.4385 19.2045 17.8272 20.0735 20.747 16.7803C23.6666 13.4869 23.6744 13.4869 23.6744 13.4869L24.6501 13.1973L25.1151 13.9367L24.6881 14.6839ZM8.08454 14.6609C9.54063 15.4004 11.172 15.8503 14.1908 20.2794H14.9608L15.1818 19.0978C15.1818 19.0978 14.8083 19.9515 11.9419 16.7117C9.07555 13.4718 9.07555 13.4793 9.07555 13.4793L8.12263 13.1973L7.66528 13.9215L8.08454 14.6609Z" fill="black"/>
<path d="M15.6775 18.2446L13.7031 20.219C13.6343 20.2867 13.5797 20.3674 13.5424 20.4564C13.5051 20.5454 13.4858 20.6409 13.4858 20.7374C13.4858 20.834 13.5051 20.9295 13.5424 21.0185C13.5797 21.1075 13.6343 21.1882 13.7031 21.2559L15.6775 23.2303C15.7452 23.2991 15.8259 23.3537 15.9149 23.391C16.0039 23.4284 16.0995 23.4476 16.196 23.4476C16.2925 23.4476 16.388 23.4284 16.477 23.391C16.566 23.3537 16.6467 23.2991 16.7144 23.2303L18.6888 21.2559C18.7576 21.1882 18.8123 21.1075 18.8496 21.0185C18.8869 20.9295 18.9061 20.834 18.9061 20.7374C18.9061 20.6409 18.8869 20.5454 18.8496 20.4564C18.8123 20.3674 18.7576 20.2867 18.6888 20.219L16.7144 18.2446C16.4247 17.9549 15.9596 17.9549 15.6775 18.2446Z" fill="black"/>
<path d="M16.1958 18.121V23.343C16.0696 23.3432 15.9447 23.3184 15.8282 23.27C15.7118 23.2216 15.6061 23.1505 15.5173 23.0609L13.8631 21.4066C13.7743 21.3182 13.7038 21.213 13.6557 21.0972C13.6076 20.9815 13.5829 20.8574 13.5829 20.732C13.5829 20.6066 13.6076 20.4825 13.6557 20.3667C13.7038 20.251 13.7743 20.1458 13.8631 20.0574L15.5173 18.4031C15.7003 18.2125 15.9442 18.121 16.1958 18.121ZM16.798 14.2559C16.798 14.2559 16.4246 12.7085 16.6608 11.8317L15.8604 11.8012C15.8604 11.8012 16.3255 13.6995 15.5173 14.0958L16.798 14.2559ZM24.7721 13.6918C23.1788 13.8975 21.555 13.5622 17.0573 18.2658L16.3789 17.7931L16.6761 15.9178C16.6761 15.9178 16.6534 17.4119 20.5259 14.3779C24.3986 11.3437 24.3909 11.3438 24.3909 11.3438L25.3515 11.5116L25.4506 12.8608L24.7721 13.6918ZM7.71882 13.6918C9.31209 13.8975 10.9358 13.5622 15.4337 18.2658L16.1121 17.7931L15.8149 15.9178C15.8149 15.9178 15.8376 17.4119 11.9651 14.3779C8.0924 11.3437 8.09999 11.3438 8.09999 11.3438L7.13948 11.5116L7.04053 12.8608L7.71882 13.6918Z" fill="black"/>
<path d="M25.4886 18.9678C23.8039 18.983 22.0581 19.4937 17.507 15.8574L16.76 16.3682L16.981 18.0073C16.981 18.0073 17.0343 16.6732 20.9985 18.8992L24.9625 21.1175L25.9918 20.8431L26.167 19.6233L25.4886 18.9678ZM7.62736 18.9145C9.28162 18.9297 10.9967 19.4328 15.4565 15.8727L16.1882 16.3683L15.9748 17.9769C15.9748 17.9769 15.9214 16.6733 12.0336 18.8459L8.14571 21.0185L7.13938 20.7518L6.96411 19.5548L7.62736 18.9145Z" fill="black"/>
<path d="M6.52943 20.8738C8.62586 21.9029 10.4478 21.7734 14.8006 27.1554L16.4397 28.0168L16.7599 26.5151C16.7599 26.5151 16.2186 27.5976 12.0867 23.4886C7.95502 19.3797 7.95502 19.3721 7.95502 19.3721L6.57511 19.0137L5.91187 19.9361L6.52943 20.8738Z" fill="black"/>
<path d="M26.3959 20.8738C24.1775 21.9029 22.2489 21.7734 17.6368 27.1554L15.8986 28.0168L15.5632 26.5151C15.5632 26.5151 16.135 27.5976 20.5107 23.4886C24.8865 19.3797 24.8788 19.3721 24.8788 19.3721L26.3349 19.0137L27.0362 19.9361L26.3959 20.8738Z" fill="black"/>
<path d="M25.6485 17.7242C23.8112 16.6417 21.753 15.9937 17.9565 9.55194H16.9808L16.6988 11.2672C16.6988 11.2672 17.1714 10.0246 20.7848 14.7358C24.3983 19.447 24.3906 19.4394 24.3906 19.4394L25.5951 19.8511L26.1746 18.7991L25.6485 17.7242ZM7.32991 17.7242C9.06807 16.6417 11.0196 15.9937 14.6254 9.55194H15.5478L15.8146 11.2672C15.8146 11.2672 15.3648 10.0246 11.942 14.7358C8.51909 19.447 8.51909 19.4394 8.51909 19.4394L7.37559 19.8511L6.82674 18.7991L7.32991 17.7242ZM25.9535 11.7704C24.1162 10.9394 22.058 10.444 18.2615 5.51172H17.2858L17.0038 6.8229C17.0038 6.8229 17.4764 5.86998 21.0898 9.47576C24.7033 13.0815 24.6956 13.0815 24.6956 13.0815L25.9001 13.3941L26.4796 12.5861L25.9535 11.7704ZM6.8647 11.7704C8.70195 10.9394 10.7602 10.444 14.5567 5.51172H15.5324L15.8144 6.8229C15.8144 6.8229 15.3418 5.86998 11.7284 9.47576C8.11488 13.0815 8.12261 13.0815 8.12261 13.0815L6.9181 13.3941L6.33862 12.5861L6.8647 11.7704Z" fill="black"/>
<path d="M5.98053 17.2602L4.0061 19.2347C3.93729 19.3023 3.88264 19.383 3.84533 19.472C3.80803 19.561 3.78882 19.6566 3.78882 19.7531C3.78882 19.8496 3.80803 19.9451 3.84533 20.0341C3.88264 20.1231 3.93729 20.2038 4.0061 20.2715L5.98053 22.2459C6.04819 22.3147 6.12887 22.3693 6.21787 22.4066C6.30686 22.4439 6.40238 22.4631 6.49887 22.4631C6.59536 22.4631 6.69089 22.4439 6.77988 22.4066C6.86887 22.3693 6.94955 22.3147 7.01722 22.2459L8.99165 20.2715C9.06046 20.2038 9.11511 20.1231 9.15241 20.0341C9.18972 19.9451 9.20893 19.8496 9.20893 19.7531C9.20893 19.6566 9.18972 19.561 9.15241 19.472C9.11511 19.383 9.06046 19.3023 8.99165 19.2347L7.01722 17.2602C6.73527 16.9706 6.2702 16.9706 5.98053 17.2602Z" fill="black"/>
<path d="M6.49908 17.139V22.3609C6.25509 22.3609 6.0111 22.2696 5.82065 22.079L4.16639 20.4247C4.07759 20.3362 4.00713 20.2311 3.95905 20.1153C3.91098 19.9995 3.88623 19.8754 3.88623 19.75C3.88623 19.6247 3.91098 19.5005 3.95905 19.3847C4.00713 19.269 4.07759 19.1638 4.16639 19.0753L5.82065 17.4211C5.90942 17.3315 6.01511 17.2604 6.13157 17.212C6.24803 17.1635 6.37296 17.1387 6.49908 17.139ZM6.62881 10.6743L4.65424 12.6487C4.58543 12.7164 4.53078 12.7971 4.49348 12.8861C4.45617 12.9751 4.43696 13.0706 4.43696 13.1671C4.43696 13.2636 4.45617 13.3592 4.49348 13.4482C4.53078 13.5372 4.58543 13.6179 4.65424 13.6855L6.62867 15.66C6.69634 15.7288 6.77703 15.7834 6.86603 15.8207C6.95504 15.858 7.05058 15.8773 7.14708 15.8773C7.24359 15.8773 7.33913 15.858 7.42814 15.8207C7.51714 15.7834 7.59783 15.7288 7.6655 15.66L9.63993 13.6855C9.70874 13.6179 9.76339 13.5372 9.80069 13.4482C9.838 13.3592 9.85721 13.2636 9.85721 13.1671C9.85721 13.0706 9.838 12.9751 9.80069 12.8861C9.76339 12.7971 9.70874 12.7164 9.63993 12.6487L7.6655 10.6743C7.38342 10.3846 6.91848 10.3846 6.62881 10.6743Z" fill="black"/>
<path d="M7.14703 10.5508V15.7727C6.90304 15.7727 6.65905 15.6812 6.4686 15.4907L4.81434 13.8364C4.72554 13.7479 4.65508 13.6428 4.607 13.527C4.55893 13.4112 4.53418 13.2871 4.53418 13.1617C4.53418 13.0363 4.55893 12.9122 4.607 12.7964C4.65508 12.6806 4.72554 12.5755 4.81434 12.487L6.4686 10.8327C6.55738 10.7431 6.66307 10.6721 6.77953 10.6237C6.896 10.5753 7.02091 10.5505 7.14703 10.5508ZM15.7231 13.585L13.7486 15.5594C13.6798 15.627 13.6252 15.7077 13.5879 15.7967C13.5506 15.8857 13.5314 15.9812 13.5314 16.0777C13.5314 16.1742 13.5506 16.2698 13.5879 16.3587C13.6252 16.4477 13.6798 16.5284 13.7486 16.5961L15.7231 18.5705C15.7907 18.6393 15.8714 18.694 15.9604 18.7313C16.0494 18.7686 16.145 18.7878 16.2415 18.7878C16.338 18.7878 16.4335 18.7686 16.5225 18.7313C16.6115 18.694 16.6922 18.6393 16.7599 18.5705L18.7343 16.5961C18.8031 16.5284 18.8578 16.4477 18.8951 16.3587C18.9324 16.2698 18.9516 16.1742 18.9516 16.0777C18.9516 15.9812 18.9324 15.8857 18.8951 15.7967C18.8578 15.7077 18.8031 15.627 18.7343 15.5594L16.7599 13.585C16.4778 13.2953 16.0127 13.2953 15.7231 13.585Z" fill="black"/>
<path d="M16.2415 13.4648V18.6868C15.9975 18.6868 15.7537 18.5953 15.5631 18.4047L13.9088 16.7505C13.82 16.662 13.7495 16.5569 13.7015 16.4411C13.6534 16.3253 13.6286 16.2012 13.6286 16.0758C13.6286 15.9505 13.6534 15.8263 13.7015 15.7106C13.7495 15.5948 13.82 15.4897 13.9088 15.4012L15.5631 13.7469C15.6518 13.6573 15.7575 13.5862 15.874 13.5378C15.9905 13.4894 16.1154 13.4646 16.2415 13.4648ZM15.7232 25.3571L13.7563 27.324C13.6875 27.3916 13.6329 27.4723 13.5956 27.5613C13.5583 27.6503 13.5391 27.7458 13.5391 27.8423C13.5391 27.9388 13.5583 28.0343 13.5956 28.1233C13.6329 28.2123 13.6875 28.293 13.7563 28.3607L15.7308 30.3351C15.7984 30.4039 15.8791 30.4585 15.9681 30.4958C16.0571 30.5331 16.1526 30.5523 16.2491 30.5523C16.3456 30.5523 16.4411 30.5331 16.5301 30.4958C16.6191 30.4585 16.6998 30.4039 16.7675 30.3351L18.7419 28.3607C18.8107 28.293 18.8653 28.2123 18.9026 28.1233C18.9399 28.0343 18.9592 27.9388 18.9592 27.8423C18.9592 27.7458 18.9399 27.6503 18.9026 27.5613C18.8653 27.4723 18.8107 27.3916 18.7419 27.324L16.7675 25.3495C16.6274 25.2132 16.4392 25.1375 16.2438 25.1389C16.0483 25.1404 15.8612 25.2188 15.7232 25.3571Z" fill="black"/>
<path d="M16.2416 25.2339V30.4482C15.9976 30.4482 15.7537 30.3567 15.5631 30.1661L13.9089 28.5119C13.8201 28.4234 13.7496 28.3183 13.7015 28.2025C13.6534 28.0867 13.6287 27.9626 13.6287 27.8372C13.6287 27.7119 13.6534 27.5878 13.7015 27.472C13.7496 27.3562 13.8201 27.2511 13.9089 27.1626L15.5631 25.5083C15.7451 25.3324 15.9884 25.2339 16.2416 25.2339ZM24.9016 10.6734L22.9272 12.6478C22.8584 12.7155 22.8037 12.7961 22.7664 12.8851C22.729 12.9741 22.7098 13.0697 22.7098 13.1662C22.7098 13.2627 22.729 13.3582 22.7664 13.4472C22.8037 13.5362 22.8584 13.6169 22.9272 13.6845L24.9016 15.659C24.9693 15.7278 25.05 15.7824 25.139 15.8197C25.2279 15.857 25.3235 15.8762 25.42 15.8762C25.5165 15.8762 25.612 15.857 25.701 15.8197C25.79 15.7824 25.8707 15.7278 25.9383 15.659L27.9052 13.6769C27.974 13.6093 28.0286 13.5286 28.0659 13.4396C28.1032 13.3506 28.1224 13.255 28.1224 13.1585C28.1224 13.062 28.1032 12.9665 28.0659 12.8775C28.0286 12.7885 27.974 12.7078 27.9052 12.6401L25.9307 10.6657C25.6486 10.3836 25.1836 10.3836 24.9016 10.6734Z" fill="black"/>
<path d="M25.4124 10.5508V15.7727C25.6564 15.7727 25.9004 15.6812 26.091 15.4907L27.7452 13.8364C27.834 13.7479 27.9044 13.6427 27.9525 13.527C28.0006 13.4112 28.0253 13.2871 28.0253 13.1617C28.0253 13.0363 28.0006 12.9122 27.9525 12.7964C27.9044 12.6806 27.834 12.5755 27.7452 12.487L26.091 10.8327C25.908 10.6421 25.664 10.5508 25.4124 10.5508ZM29.0792 19.2338L27.1123 17.2593C27.0447 17.1905 26.964 17.1359 26.875 17.0986C26.786 17.0613 26.6904 17.042 26.5939 17.042C26.4974 17.042 26.4019 17.0613 26.3129 17.0986C26.2239 17.1359 26.1432 17.1905 26.0755 17.2593L24.1011 19.2338C24.0323 19.3014 23.9776 19.3821 23.9403 19.4711C23.903 19.5601 23.8838 19.6557 23.8838 19.7522C23.8838 19.8487 23.903 19.9442 23.9403 20.0332C23.9776 20.1222 24.0323 20.2029 24.1011 20.2706L26.0755 22.245C26.1432 22.3138 26.2239 22.3685 26.3129 22.4058C26.4019 22.4431 26.4974 22.4623 26.5939 22.4623C26.6904 22.4623 26.786 22.4431 26.875 22.4058C26.964 22.3685 27.0447 22.3138 27.1123 22.245L29.0868 20.2706C29.3688 19.9809 29.3688 19.5158 29.0792 19.2338Z" fill="black"/>
<path d="M26.6625 17.1388V22.3608C26.7887 22.3611 26.9136 22.3363 27.03 22.2879C27.1465 22.2395 27.2522 22.1684 27.341 22.0788L28.9952 20.4246C29.084 20.3361 29.1545 20.2309 29.2026 20.1152C29.2506 19.9994 29.2754 19.8752 29.2754 19.7499C29.2754 19.6245 29.2506 19.5004 29.2026 19.3846C29.1545 19.2688 29.084 19.1637 28.9952 19.0752L27.341 17.4209C27.2522 17.3313 27.1465 17.2602 27.0301 17.2118C26.9136 17.1634 26.7887 17.1386 26.6625 17.1388ZM15.7613 7.52585L13.7868 9.50028C13.718 9.56793 13.6634 9.64861 13.6261 9.73761C13.5888 9.8266 13.5696 9.92213 13.5696 10.0186C13.5696 10.1151 13.5888 10.2107 13.6261 10.2996C13.6634 10.3886 13.718 10.4693 13.7868 10.537L15.7613 12.5114C15.8289 12.5802 15.9096 12.6349 15.9986 12.6722C16.0876 12.7095 16.1831 12.7287 16.2796 12.7287C16.3761 12.7287 16.4716 12.7095 16.5606 12.6722C16.6496 12.6349 16.7303 12.5802 16.798 12.5114L18.7724 10.537C18.8412 10.4693 18.8959 10.3886 18.9332 10.2996C18.9705 10.2107 18.9897 10.1151 18.9897 10.0186C18.9897 9.92213 18.9705 9.8266 18.9332 9.73761C18.8959 9.64861 18.8412 9.56793 18.7724 9.50028L16.798 7.52585C16.5159 7.23618 16.051 7.23618 15.7613 7.52585Z" fill="black"/>
<path d="M16.2798 7.4043V12.6263C16.1536 12.6265 16.0287 12.6017 15.9122 12.5533C15.7958 12.5048 15.6901 12.4338 15.6013 12.3442L13.9547 10.6899C13.8659 10.6014 13.7954 10.4963 13.7474 10.3805C13.6993 10.2647 13.6746 10.1406 13.6746 10.0153C13.6746 9.88993 13.6993 9.76581 13.7474 9.65004C13.7954 9.53427 13.8659 9.42913 13.9547 9.34064L15.6089 7.68638C15.7919 7.49579 16.0359 7.4043 16.2798 7.4043Z" fill="black"/>
<path d="M15.7231 2.37936L13.7487 4.35379C13.6799 4.42146 13.6253 4.50214 13.588 4.59113C13.5507 4.68013 13.5315 4.77565 13.5315 4.87214C13.5315 4.96863 13.5507 5.06416 13.588 5.15315C13.6253 5.24214 13.6799 5.32282 13.7487 5.39049L15.7231 7.36492C15.7908 7.43373 15.8715 7.48838 15.9605 7.52568C16.0495 7.56298 16.145 7.5822 16.2415 7.5822C16.3381 7.5822 16.4336 7.56298 16.5226 7.52568C16.6116 7.48838 16.6923 7.43373 16.76 7.36492L18.7344 5.39049C18.8032 5.32282 18.8578 5.24214 18.8951 5.15315C18.9324 5.06416 18.9516 4.96863 18.9516 4.87214C18.9516 4.77565 18.9324 4.68013 18.8951 4.59113C18.8578 4.50214 18.8032 4.42146 18.7344 4.35379L16.76 2.37936C16.4779 2.08969 16.0128 2.08969 15.7231 2.37936Z" fill="black"/>
<path d="M16.2415 2.25781V7.47977C15.9975 7.47977 15.7537 7.38827 15.5631 7.19782L13.9088 5.54343C13.82 5.45495 13.7496 5.34981 13.7015 5.23404C13.6534 5.11827 13.6287 4.99415 13.6287 4.86879C13.6287 4.74344 13.6534 4.61931 13.7015 4.50355C13.7496 4.38778 13.82 4.28264 13.9088 4.19415L15.5631 2.53989C15.6518 2.45031 15.7575 2.37925 15.874 2.33085C15.9905 2.28245 16.1154 2.25753 16.2415 2.25781Z" fill="black"/>
</g>
<path d="M24.1417 21.5061L22.071 20.3139C22.027 20.2891 21.9749 20.2825 21.9261 20.2958C21.902 20.3026 21.8795 20.3142 21.8598 20.3298C21.8402 20.3454 21.8239 20.3647 21.8118 20.3867C21.6339 20.7128 21.4127 21.0134 21.1543 21.2803C20.806 21.6406 20.4066 21.9478 19.969 22.192C19.5465 22.4262 19.0933 22.6003 18.6226 22.709C18.18 22.8137 17.727 22.868 17.2722 22.8708C16.4709 22.8782 15.6798 22.6907 14.9671 22.3244C14.2824 21.9703 13.6754 21.4827 13.1819 20.8906C12.9409 20.6 12.7267 20.2882 12.5419 19.9589L12.2985 19.5265H17.5553C17.58 19.5265 17.6045 19.5217 17.6273 19.5122C17.6502 19.5028 17.6709 19.4889 17.6884 19.4715C17.7059 19.454 17.7198 19.4332 17.7292 19.4104C17.7387 19.3876 17.7436 19.3631 17.7436 19.3384V17.7007C17.7435 17.6508 17.7236 17.6029 17.6883 17.5676C17.653 17.5324 17.6052 17.5125 17.5553 17.5124H11.7137L11.6848 17.2539C11.6538 16.9749 11.6381 16.6944 11.6378 16.4137C11.6378 16.1784 11.6503 15.9319 11.6754 15.6796L11.7018 15.418H17.5553C17.58 15.418 17.6045 15.4131 17.6274 15.4037C17.6502 15.3942 17.671 15.3804 17.6885 15.3629C17.7059 15.3454 17.7198 15.3246 17.7293 15.3018C17.7387 15.2789 17.7436 15.2544 17.7436 15.2297V13.5921C17.7435 13.5422 17.7236 13.4944 17.6883 13.4591C17.653 13.4238 17.6052 13.4039 17.5553 13.4038H12.2426L12.4679 12.9778C12.6272 12.6755 12.8111 12.3867 13.0176 12.1145C13.4849 11.5036 14.077 10.9992 14.7544 10.6349C15.4533 10.2535 16.2822 10.0595 17.2183 10.0595C17.6628 10.0614 18.1059 10.1112 18.5398 10.2077C18.9937 10.3084 19.4325 10.4683 19.8449 10.6832C20.6172 11.0943 21.2596 11.7127 21.6996 12.4689C21.7127 12.4913 21.7302 12.5108 21.7512 12.526C21.7721 12.5412 21.796 12.5519 21.8213 12.5575C21.8466 12.563 21.8727 12.5633 21.8981 12.5584C21.9234 12.5534 21.9475 12.5433 21.9688 12.5286L23.8919 11.204C23.9312 11.177 23.9588 11.136 23.9691 11.0894C23.9793 11.0429 23.9715 10.9941 23.9472 10.9531C23.3775 9.995 22.5629 9.19241 21.5264 8.56874C20.353 7.86293 18.9382 7.50195 17.3225 7.50195C15.9514 7.50195 14.7141 7.76058 13.6444 8.27012C12.6229 8.74487 11.7051 9.4164 10.9435 10.2463C10.1818 11.0761 9.59133 12.0481 9.20576 13.1064C9.19953 13.1222 9.19451 13.1379 9.1895 13.1535V13.1579C9.18448 13.1742 9.17879 13.1906 9.17255 13.2069L9.10342 13.4002H5.06035C5.01045 13.4002 4.9626 13.42 4.9273 13.4553C4.89201 13.4906 4.87214 13.5384 4.87207 13.5883V15.226C4.87214 15.2759 4.89201 15.3238 4.9273 15.359C4.9626 15.3943 5.01045 15.4141 5.06035 15.4142H8.66058L8.63997 15.7235C8.62648 15.9177 8.61934 16.1124 8.61856 16.3071C8.61856 16.5989 8.6336 16.8956 8.66261 17.1894L8.69379 17.5087H5.06035C5.01045 17.5088 4.9626 17.5286 4.9273 17.5639C4.89201 17.5991 4.87214 17.647 4.87207 17.6969V19.3346C4.87214 19.3845 4.89201 19.4323 4.9273 19.4676C4.9626 19.5029 5.01045 19.5227 5.06035 19.5227H9.21159L9.28492 19.706C9.6961 20.7481 10.285 21.7108 11.0255 22.5515C11.7862 23.4094 12.7031 24.1149 13.7273 24.6303C14.7595 25.1549 15.9172 25.4208 17.1671 25.4208C17.9061 25.4172 18.6421 25.3251 19.3593 25.1466C20.091 24.9696 20.7978 24.7019 21.4632 24.3498C22.1057 24.0093 22.6972 23.5801 23.2201 23.0748C23.6186 22.6907 23.9538 22.246 24.2133 21.7571C24.2361 21.7142 24.2414 21.664 24.2281 21.6173C24.2147 21.5705 24.1837 21.5306 24.1417 21.5061ZM12.2174 27.7207C12.2174 28.0162 11.9843 28.1897 11.5858 28.1897H10.6965V26.4818H11.5288C11.968 26.4818 12.1659 26.6661 12.1659 26.9535C12.1659 27.1433 12.0439 27.2734 11.8623 27.3032C12.0629 27.3439 12.2174 27.4767 12.2174 27.7207ZM11.5099 27.5038H11.1439V27.821H11.5126C11.6725 27.821 11.743 27.7559 11.743 27.6638C11.743 27.5716 11.6725 27.5038 11.5099 27.5038ZM11.1439 26.8478V27.1595H11.4692C11.6264 27.1595 11.6888 27.089 11.6888 27.0077C11.6888 26.9182 11.6264 26.8478 11.4692 26.8478H11.1439ZM13.6103 26.9941L13.5832 27.4089C13.5236 27.3737 13.4585 27.3574 13.3745 27.3574C13.2118 27.3574 13.1115 27.4333 13.1115 27.6367V28.1897H12.6723V26.9806H13.1115V27.1948C13.1549 27.0592 13.2823 26.9481 13.4423 26.9481C13.5155 26.9481 13.5805 26.9697 13.6103 26.9941ZM14.8154 27.5743V26.9806H15.2546V28.1897H14.8154V28.0081C14.7503 28.1436 14.6175 28.2222 14.4359 28.2222C14.1051 28.2222 14.0048 27.9945 14.0048 27.7424V26.9806H14.444V27.6258C14.444 27.7885 14.4901 27.8779 14.6229 27.8779C14.7612 27.8779 14.8154 27.7587 14.8154 27.5743ZM15.6774 27.7966L16.0596 27.7912C16.0759 27.8915 16.1572 27.9484 16.2901 27.9484C16.3876 27.9484 16.4392 27.9132 16.4392 27.8644C16.4392 27.8183 16.412 27.7858 16.328 27.7722L16.1491 27.7451C15.8563 27.699 15.7018 27.6041 15.7018 27.3574C15.7018 27.1189 15.9105 26.9481 16.2494 26.9481C16.5991 26.9481 16.8051 27.1026 16.8295 27.3547L16.469 27.3656C16.4527 27.2788 16.3768 27.2246 16.2413 27.2246C16.1572 27.2246 16.1084 27.2571 16.1084 27.3113C16.1084 27.352 16.1409 27.3737 16.1816 27.3791L16.4175 27.4198C16.6886 27.4632 16.8458 27.5851 16.8458 27.821C16.8458 28.0758 16.6289 28.2222 16.2846 28.2222C15.9512 28.2222 15.7018 28.0894 15.6774 27.7966ZM17.1981 27.7966L17.5804 27.7912C17.5966 27.8915 17.678 27.9484 17.8108 27.9484C17.9084 27.9484 17.9599 27.9132 17.9599 27.8644C17.9599 27.8183 17.9328 27.7858 17.8487 27.7722L17.6698 27.7451C17.377 27.699 17.2225 27.6041 17.2225 27.3574C17.2225 27.1189 17.4313 26.9481 17.7701 26.9481C18.1198 26.9481 18.3259 27.1026 18.3503 27.3547L17.9897 27.3656C17.9735 27.2788 17.8975 27.2246 17.762 27.2246C17.678 27.2246 17.6292 27.2571 17.6292 27.3113C17.6292 27.352 17.6617 27.3737 17.7024 27.3791L17.9382 27.4198C18.2093 27.4632 18.3666 27.5851 18.3666 27.821C18.3666 28.0758 18.1497 28.2222 17.8054 28.2222C17.4719 28.2222 17.2225 28.0894 17.1981 27.7966ZM19.6567 27.7587L20.0092 27.7912C19.9468 28.0677 19.7245 28.2222 19.4046 28.2222C19.0169 28.2222 18.7404 27.9891 18.7404 27.6041C18.7404 27.2219 19.0223 26.9481 19.3992 26.9481C19.8031 26.9481 20.0173 27.2246 20.0173 27.5526V27.6746H19.1687C19.1796 27.8237 19.288 27.8942 19.4209 27.8942C19.5402 27.8942 19.6161 27.8535 19.6567 27.7587ZM19.1742 27.4632H19.5998C19.5944 27.3547 19.5239 27.2625 19.3938 27.2625C19.2528 27.2625 19.1904 27.3493 19.1742 27.4632ZM20.4665 26.4818H20.9057V28.1897H20.4665V26.4818ZM21.3286 27.7966L21.7109 27.7912C21.7271 27.8915 21.8085 27.9484 21.9413 27.9484C22.0389 27.9484 22.0904 27.9132 22.0904 27.8644C22.0904 27.8183 22.0633 27.7858 21.9792 27.7722L21.8003 27.7451C21.5075 27.699 21.353 27.6041 21.353 27.3574C21.353 27.1189 21.5618 26.9481 21.9006 26.9481C22.2504 26.9481 22.4564 27.1026 22.4808 27.3547L22.1202 27.3656C22.104 27.2788 22.028 27.2246 21.8925 27.2246C21.8085 27.2246 21.7597 27.2571 21.7597 27.3113C21.7597 27.352 21.7922 27.3737 21.8329 27.3791L22.0687 27.4198C22.3398 27.4632 22.4971 27.5851 22.4971 27.821C22.4971 28.0758 22.2802 28.2222 21.9359 28.2222C21.6024 28.2222 21.353 28.0894 21.3286 27.7966Z" fill="white"/>
<defs>
<linearGradient id="paint0_linear_3895_80" x1="9.02526" y1="3.57872" x2="23.9009" y2="29.3443" gradientUnits="userSpaceOnUse">
<stop stop-color="#0095D7"/>
<stop offset="1" stop-color="#0072AA"/>
</linearGradient>
</defs>
</svg>
