<svg width="300" height="300" fill="none" xmlns="http://www.w3.org/2000/svg"><g clip-path="url(#a)"><path d="M149.5 267.537c65.19 0 118.037-52.847 118.037-118.037S214.69 31.463 149.5 31.463 31.463 84.31 31.463 149.5 84.31 267.537 149.5 267.537Z" fill="#fff"/><path d="M149.5 259.228c60.601 0 109.728-49.127 109.728-109.728 0-60.602-49.127-109.728-109.728-109.728-60.601 0-109.728 49.127-109.728 109.728 0 60.601 49.127 109.728 109.728 109.728Z" fill="url(#b)"/><g style="mix-blend-mode:soft-light" opacity=".25" fill="#000"><path d="M151.747 219.888s-2.531-18.109-.618-28.345l-5.906-.225s3.15 22.159-2.868 26.939l9.392 1.631ZM210.18 136.373c-10.966 5.568-23.283 8.942-46.003 42.179h-5.793l-1.687-8.829s2.868 6.411 24.408-17.884c21.539-24.296 21.596-24.296 21.596-24.296l7.198-2.137 3.431 5.455-3.15 5.512ZM87.69 136.204c10.742 5.455 22.777 8.774 45.048 41.449h5.68l1.631-8.717s-2.756 6.298-23.902-17.603c-21.146-23.902-21.146-23.846-21.146-23.846l-7.03-2.081-3.374 5.343 3.093 5.455Z"/><path d="m143.706 162.636-14.566 14.566a5.364 5.364 0 0 0 0 7.649l14.566 14.566a5.364 5.364 0 0 0 7.649 0l14.566-14.566a5.364 5.364 0 0 0 0-7.649l-14.566-14.566c-2.137-2.137-5.568-2.137-7.649 0Z"/><path d="M147.529 161.738v38.524a7.026 7.026 0 0 1-5.005-2.081l-12.204-12.204a7.025 7.025 0 0 1 0-9.954l12.204-12.204c1.35-1.406 3.149-2.081 5.005-2.081ZM151.972 133.224s-2.755-11.416-1.012-17.884l-5.905-.225s3.431 14.004-2.531 16.928l9.448 1.181ZM210.799 129.062c-11.754 1.518-23.733-.956-56.914 33.744l-5.005-3.487 2.193-13.835s-.168 11.023 28.401-11.36c28.57-22.384 28.513-22.384 28.513-22.384l7.087 1.238.731 9.954-5.006 6.13ZM84.992 129.062c11.754 1.518 23.733-.956 56.915 33.744l5.005-3.487-2.193-13.835s.168 11.023-28.401-11.36c-28.57-22.384-28.514-22.384-28.514-22.384l-7.086 1.238-.73 9.954 5.004 6.13Z"/><path d="M216.085 167.979c-12.429.112-25.308 3.88-58.883-22.946l-5.511 3.768 1.631 12.092s.393-9.842 29.638 6.58l29.244 16.365 7.593-2.024 1.293-8.999-5.005-4.836ZM84.317 167.586c12.204.112 24.857 3.824 57.758-22.44l5.398 3.656-1.574 11.867s-.394-9.617-29.076 6.411l-28.682 16.028-7.424-1.968-1.293-8.83 4.893-4.724Z"/><path d="M76.219 182.039c15.466 7.592 28.907 6.636 61.019 46.341l12.092 6.355 2.362-11.079s-3.993 7.986-34.475-22.327c-30.481-30.313-30.481-30.369-30.481-30.369l-10.18-2.644-4.893 6.805 4.556 6.918Z"/><path d="M222.778 182.039c-16.366 7.592-30.594 6.636-64.619 46.341l-12.823 6.355-2.474-11.079s4.218 7.986 36.499-22.327c32.282-30.313 32.225-30.369 32.225-30.369l10.742-2.644 5.174 6.805-4.724 6.918Z"/><path d="M217.266 158.812c-13.554-7.986-28.738-12.766-56.746-60.289h-7.198l-2.081 12.654s3.487-9.167 30.144 25.589c26.658 34.756 26.601 34.7 26.601 34.7l8.886 3.037 4.275-7.761-3.881-7.93ZM82.124 158.812c12.823-7.986 27.22-12.766 53.821-60.289h6.805l1.968 12.654s-3.318-9.167-28.569 25.589c-25.252 34.756-25.252 34.7-25.252 34.7l-8.436 3.037-4.049-7.761 3.712-7.93ZM219.516 114.889c-13.554-6.13-28.738-9.785-56.746-46.172h-7.198l-2.081 9.673s3.487-7.03 30.144 19.571c26.658 26.601 26.601 26.601 26.601 26.601l8.886 2.306 4.275-5.961-3.881-6.018ZM78.692 114.889c13.554-6.13 28.738-9.785 56.746-46.172h7.198l2.081 9.673s-3.487-7.03-30.144 19.571c-26.658 26.601-26.601 26.601-26.601 26.601l-8.886 2.306-4.275-5.961 3.881-6.018Z"/><path d="m72.169 155.382-14.566 14.566a5.364 5.364 0 0 0 0 7.649l14.566 14.566a5.364 5.364 0 0 0 7.648 0l14.566-14.566a5.364 5.364 0 0 0 0-7.649l-14.566-14.566c-2.08-2.137-5.511-2.137-7.648 0Z"/><path d="M75.993 154.482v38.524c-1.8 0-3.6-.674-5.005-2.08l-12.204-12.204a7.027 7.027 0 0 1 0-9.955l12.204-12.204a7.026 7.026 0 0 1 5.005-2.081ZM76.95 106.79l-14.567 14.566a5.364 5.364 0 0 0 0 7.649l14.566 14.566a5.364 5.364 0 0 0 7.649 0l14.566-14.566a5.364 5.364 0 0 0 0-7.649L84.598 106.79c-2.081-2.137-5.512-2.137-7.649 0Z"/><path d="M80.774 105.891v38.524c-1.8 0-3.6-.675-5.005-2.081L63.565 130.13a7.027 7.027 0 0 1 0-9.955l12.204-12.204a7.025 7.025 0 0 1 5.005-2.08ZM144.042 128.275l-14.566 14.566a5.363 5.363 0 0 0 0 7.648l14.566 14.566a5.364 5.364 0 0 0 7.649 0l14.566-14.566a5.363 5.363 0 0 0 0-7.648l-14.566-14.566c-2.081-2.137-5.512-2.137-7.649 0Z"/><path d="M147.867 127.375v38.524c-1.8 0-3.599-.675-5.005-2.081l-12.204-12.204a7.025 7.025 0 0 1 0-9.954l12.204-12.204a7.024 7.024 0 0 1 5.005-2.081ZM144.043 215.108l-14.51 14.51a5.363 5.363 0 0 0 0 7.648l14.566 14.566a5.363 5.363 0 0 0 7.648 0l14.566-14.566a5.363 5.363 0 0 0 0-7.648l-14.566-14.566a5.482 5.482 0 0 0-7.704.056Z"/><path d="M147.867 214.209v38.468c-1.8 0-3.599-.675-5.005-2.081l-12.204-12.204a7.025 7.025 0 0 1 0-9.954l12.204-12.204a7.204 7.204 0 0 1 5.005-2.025ZM211.755 106.792l-14.566 14.566a5.361 5.361 0 0 0 0 7.648l14.566 14.566a5.363 5.363 0 0 0 7.648 0l14.51-14.622a5.364 5.364 0 0 0 0-7.649l-14.566-14.566c-2.081-2.081-5.512-2.081-7.592.057Z"/><path d="M215.523 105.891v38.524c1.8 0 3.6-.675 5.006-2.081l12.204-12.204a7.028 7.028 0 0 0 0-9.955l-12.204-12.204c-1.35-1.406-3.15-2.08-5.006-2.08ZM242.574 169.948l-14.51-14.566a5.364 5.364 0 0 0-7.649 0l-14.566 14.566a5.364 5.364 0 0 0 0 7.649l14.566 14.566a5.364 5.364 0 0 0 7.649 0l14.566-14.566c2.081-2.137 2.081-5.568-.056-7.649Z"/><path d="M224.746 154.482v38.524a7.025 7.025 0 0 0 5.005-2.08l12.204-12.204a7.027 7.027 0 0 0 0-9.955l-12.204-12.204a7.026 7.026 0 0 0-5.005-2.081ZM144.324 83.564 129.758 98.13a5.363 5.363 0 0 0 0 7.648l14.566 14.566a5.363 5.363 0 0 0 7.648 0l14.566-14.566a5.363 5.363 0 0 0 0-7.648l-14.566-14.566c-2.081-2.137-5.511-2.137-7.648 0Z"/><path d="M148.148 82.666v38.524a7.026 7.026 0 0 1-5.005-2.081l-12.148-12.204a7.027 7.027 0 0 1 0-9.954l12.204-12.204c1.35-1.406 3.15-2.081 4.949-2.081Z"/><path d="m144.042 45.603-14.566 14.566a5.364 5.364 0 0 0 0 7.648l14.566 14.566a5.364 5.364 0 0 0 7.649 0l14.566-14.566a5.364 5.364 0 0 0 0-7.648l-14.566-14.566c-2.081-2.137-5.512-2.137-7.649 0Z"/><path d="M147.867 44.703v38.524c-1.8 0-3.599-.675-5.005-2.08l-12.204-12.205a7.026 7.026 0 0 1 0-9.954l12.204-12.204a7.024 7.024 0 0 1 5.005-2.08Z"/></g><path d="m206.149 186.693-15.276-8.795a1.419 1.419 0 0 0-1.069-.134 1.395 1.395 0 0 0-.843.671 30.418 30.418 0 0 1-4.851 6.592 37.732 37.732 0 0 1-8.744 6.726 38.225 38.225 0 0 1-9.933 3.814 44.506 44.506 0 0 1-9.962 1.194 36.477 36.477 0 0 1-17.006-4.031 42.657 42.657 0 0 1-13.17-10.578 46.128 46.128 0 0 1-4.721-6.873l-1.796-3.19h38.781a1.388 1.388 0 0 0 1.389-1.388v-12.082a1.392 1.392 0 0 0-1.389-1.389h-43.095l-.213-1.907a56.537 56.537 0 0 1-.347-6.198c0-1.736.092-3.555.277-5.416l.195-1.93h43.183a1.388 1.388 0 0 0 1.389-1.389v-12.081a1.392 1.392 0 0 0-1.389-1.389h-39.193l1.662-3.143a46.078 46.078 0 0 1 4.055-6.369 39.954 39.954 0 0 1 12.813-10.915c5.156-2.814 11.271-4.245 18.177-4.245 3.279.014 6.548.381 9.749 1.093a39.223 39.223 0 0 1 9.628 3.508 34.685 34.685 0 0 1 13.683 13.174 1.379 1.379 0 0 0 .898.653 1.39 1.39 0 0 0 1.088-.213l14.187-9.772a1.387 1.387 0 0 0 .408-1.851c-4.203-7.068-10.212-12.989-17.859-17.59-8.656-5.207-19.094-7.87-31.013-7.87-10.115 0-19.243 1.908-27.135 5.667a63.2 63.2 0 0 0-32.745 35.679c-.046.116-.083.232-.12.347v.033c-.037.12-.079.241-.125.361l-.51 1.426H65.38a1.39 1.39 0 0 0-1.389 1.388v12.082a1.39 1.39 0 0 0 1.389 1.388h26.56l-.152 2.282a65.97 65.97 0 0 0-.158 4.305c0 2.153.111 4.342.325 6.509l.23 2.356H65.38a1.39 1.39 0 0 0-1.389 1.388v12.082a1.39 1.39 0 0 0 1.389 1.388h30.625l.541 1.352a71.41 71.41 0 0 0 12.841 20.992 66.724 66.724 0 0 0 19.932 15.336c7.615 3.87 16.155 5.832 25.376 5.832a68.36 68.36 0 0 0 16.173-2.023 66.724 66.724 0 0 0 15.521-5.878 57.19 57.19 0 0 0 12.961-9.406 38.71 38.71 0 0 0 7.327-9.721 1.39 1.39 0 0 0-.527-1.852ZM118.18 232.54c0 2.18-1.72 3.46-4.66 3.46h-6.56v-12.6h6.14c3.24 0 4.7 1.36 4.7 3.48 0 1.4-.9 2.36-2.24 2.58 1.48.3 2.62 1.28 2.62 3.08Zm-5.22-1.6h-2.7v2.34h2.72c1.18 0 1.7-.48 1.7-1.16 0-.68-.52-1.18-1.72-1.18Zm-2.7-4.84v2.3h2.4c1.16 0 1.62-.52 1.62-1.12 0-.66-.46-1.18-1.62-1.18h-2.4Zm18.196 1.08-.2 3.06c-.44-.26-.92-.38-1.54-.38-1.2 0-1.94.56-1.94 2.06V236h-3.24v-8.92h3.24v1.58c.32-1 1.26-1.82 2.44-1.82.54 0 1.02.16 1.24.34Zm8.89 4.28v-4.38h3.24V236h-3.24v-1.34c-.48 1-1.46 1.58-2.8 1.58-2.44 0-3.18-1.68-3.18-3.54v-5.62h3.24v4.76c0 1.2.34 1.86 1.32 1.86 1.02 0 1.42-.88 1.42-2.24Zm6.359 1.64 2.82-.04c.12.74.72 1.16 1.7 1.16.72 0 1.1-.26 1.1-.62 0-.34-.2-.58-.82-.68l-1.32-.2c-2.16-.34-3.3-1.04-3.3-2.86 0-1.76 1.54-3.02 4.04-3.02 2.58 0 4.1 1.14 4.28 3l-2.66.08c-.12-.64-.68-1.04-1.68-1.04-.62 0-.98.24-.98.64 0 .3.24.46.54.5l1.74.3c2 .32 3.16 1.22 3.16 2.96 0 1.88-1.6 2.96-4.14 2.96-2.46 0-4.3-.98-4.48-3.14Zm11.219 0 2.82-.04c.12.74.72 1.16 1.7 1.16.72 0 1.1-.26 1.1-.62 0-.34-.2-.58-.82-.68l-1.32-.2c-2.16-.34-3.3-1.04-3.3-2.86 0-1.76 1.54-3.02 4.04-3.02 2.58 0 4.1 1.14 4.28 3l-2.66.08c-.12-.64-.68-1.04-1.68-1.04-.62 0-.98.24-.98.64 0 .3.24.46.54.5l1.74.3c2 .32 3.16 1.22 3.16 2.96 0 1.88-1.6 2.96-4.14 2.96-2.46 0-4.3-.98-4.48-3.14Zm18.138-.28 2.6.24c-.46 2.04-2.1 3.18-4.46 3.18-2.86 0-4.9-1.72-4.9-4.56 0-2.82 2.08-4.84 4.86-4.84 2.98 0 4.56 2.04 4.56 4.46v.9h-6.26c.08 1.1.88 1.62 1.86 1.62.88 0 1.44-.3 1.74-1Zm-3.56-2.18h3.14c-.04-.8-.56-1.48-1.52-1.48-1.04 0-1.5.64-1.62 1.48Zm9.534-7.24h3.24V236h-3.24v-12.6Zm6.36 9.7 2.82-.04c.12.74.72 1.16 1.7 1.16.72 0 1.1-.26 1.1-.62 0-.34-.2-.58-.82-.68l-1.32-.2c-2.16-.34-3.3-1.04-3.3-2.86 0-1.76 1.54-3.02 4.04-3.02 2.58 0 4.1 1.14 4.28 3l-2.66.08c-.12-.64-.68-1.04-1.68-1.04-.62 0-.98.24-.98.64 0 .3.24.46.54.5l1.74.3c2 .32 3.16 1.22 3.16 2.96 0 1.88-1.6 2.96-4.14 2.96-2.46 0-4.3-.98-4.48-3.14Z" fill="#fff"/></g><defs><linearGradient id="b" x1="94.629" y1="54.459" x2="204.371" y2="244.54" gradientUnits="userSpaceOnUse"><stop stop-color="#0095D7"/><stop offset="1" stop-color="#0072AA"/></linearGradient><clipPath id="a"><path fill="#fff" transform="translate(31 31)" d="M0 0h237v237H0z"/></clipPath></defs></svg>