<svg width="260" height="259" viewBox="0 0 260 259" fill="none" xmlns="http://www.w3.org/2000/svg">
<path d="M36.2317 78.0136L36.2627 78.0396C28.9111 87.1299 23.6179 97.8718 20.879 109.245L36.2317 78.0136ZM36.2317 78.0136C36.2751 77.9467 36.3178 77.8809 36.3598 77.8164C36.81 77.1235 37.1742 76.5631 37.3812 76.0749C37.6892 75.3487 37.6909 74.7283 37.6924 74.1952C37.6925 74.1673 37.6925 74.1395 37.6927 74.112H37.6927V74.104V74.0748M36.2317 78.0136L37.6927 74.0748M37.6927 74.0748C37.6958 72.4439 36.7824 70.9554 35.7745 69.9531C34.7632 68.9474 33.2703 68.0459 31.6403 68.0416H31.6354H31.6045H31.5222H31.4965H29.6465V68.3006C29.3086 68.4074 28.9674 68.5588 28.6241 68.7734C27.7858 69.2972 27.0833 70.1109 26.3324 71.1021L26.2849 71.1497L26.2176 71.235C18.0691 81.5609 12.1206 93.6325 9.04736 106.413C2.90429 131.915 8.45033 160.154 25.0898 180.722L25.0912 180.724C26.9588 183.026 29.0764 185.263 31.1679 187.339C31.1688 187.34 31.1697 187.341 31.1705 187.342L31.1923 187.364C31.1929 187.364 31.1936 187.365 31.1942 187.366C31.8173 187.992 32.7172 188.511 33.455 188.857C33.8468 189.04 34.2516 189.202 34.6319 189.323C34.9721 189.43 35.4364 189.552 35.8961 189.555L35.9076 189.556L35.9191 189.556C37.5516 189.547 39.0657 188.655 40.1015 187.654C41.1285 186.661 42.0858 185.17 42.0902 183.524V183.519C42.0902 182.598 41.8904 181.79 41.3814 180.932C40.9358 180.181 40.2593 179.408 39.4177 178.498L39.336 178.41L39.2439 178.333L37.6927 74.0781C37.6927 74.077 37.6927 74.0759 37.6927 74.0748Z" fill="#195245" stroke="#195245" stroke-width="3.7"/>
<path d="M50.1891 113.589C52.3931 104.443 56.6474 95.8099 62.5589 88.4992L62.5883 88.4629L62.6158 88.4251C63.3476 87.4205 64.0035 86.1015 64.0042 84.597C64.0076 82.9474 63.1518 81.4492 62.1176 80.4166C61.082 79.3827 59.583 78.5311 57.9362 78.527L57.9167 78.5269L57.8971 78.5273C55.7071 78.568 53.8659 80.0302 52.6525 81.5712C45.891 90.1403 40.9724 100.17 38.4141 110.783L38.414 110.784C33.3153 131.964 37.8991 155.384 51.7407 172.496L51.7411 172.496C53.2993 174.421 55.0325 176.285 56.7622 178.005C57.3595 178.605 58.1864 179.109 58.922 179.457C59.6192 179.787 60.5588 180.131 61.4025 180.136L61.4044 180.136C63.0548 180.144 64.5766 179.311 65.6369 178.288C66.6932 177.269 67.59 175.771 67.5943 174.104V174.099C67.5943 172.116 66.5447 170.852 65.1655 169.356L65.1218 169.291L64.9883 169.158C63.5472 167.732 62.4157 166.439 61.1615 164.884L61.1595 164.881C49.8922 150.959 45.9422 131.216 50.1891 113.589ZM50.1891 113.589L48.3906 113.156M50.1891 113.589L48.3906 113.156M48.3906 113.156C44.0187 131.301 48.0665 151.643 59.7214 166.045L62.1542 84.5945C62.1542 85.5615 61.7273 86.5027 61.1204 87.3359C55.0358 94.8607 50.6588 103.743 48.3906 113.156Z" fill="#195245" stroke="#195245" stroke-width="3.7"/>
<path d="M90.3497 158.395C90.3579 156.313 89.2085 154.935 88.1248 153.772L88.0976 153.743L88.0691 153.715C87.1693 152.83 86.4859 152.051 85.6895 151.067L85.6894 151.067C78.7474 142.488 76.2584 130.172 78.8955 119.222L78.8955 119.221C80.2663 113.527 82.9312 108.119 86.6109 103.564L86.6518 103.514L86.6891 103.46C87.4623 102.352 87.993 101.239 87.994 99.7623C88.0066 96.5586 85.1887 93.7855 82.0183 93.7779L81.7883 93.7774L81.745 93.7882C79.6273 93.8836 78.1026 95.1435 76.9888 96.5126L76.9801 96.5233L88.4997 158.387M90.3497 158.395L88.4997 158.387M90.3497 158.395C90.3497 158.394 90.3497 158.393 90.3497 158.392L88.4997 158.387M90.3497 158.395C90.3403 161.632 87.4575 164.362 84.2941 164.347M88.4997 158.387C88.4946 160.568 86.4784 162.507 84.3027 162.497M84.2941 164.347L84.3027 162.497M84.2941 164.347C84.2941 164.347 84.294 164.347 84.294 164.347L84.3027 162.497M84.2941 164.347C82.5979 164.339 80.8803 163.413 79.8429 162.371C78.6618 161.2 77.4788 159.927 76.4043 158.599C66.9149 146.869 63.7907 130.887 67.2744 116.428L69.0732 116.86L67.2747 116.426C67.2746 116.427 67.2746 116.427 67.2745 116.427L84.3027 162.497" fill="#195245" stroke="#195245" stroke-width="3.7"/>
<path d="M223.733 78.0136L223.702 78.0396C231.054 87.1299 236.347 97.8718 239.086 109.245L223.733 78.0136ZM223.733 78.0136C223.69 77.9467 223.647 77.8809 223.605 77.8164C223.155 77.1235 222.791 76.5631 222.584 76.0749C222.276 75.3487 222.274 74.7283 222.272 74.1952C222.272 74.1673 222.272 74.1395 222.272 74.112H222.272V74.104V74.0748M223.733 78.0136L222.272 74.0748M222.272 74.0748C222.269 72.4439 223.182 70.9554 224.19 69.9531C225.202 68.9474 226.695 68.0459 228.325 68.0416H228.329H228.36H228.443H228.468H230.318V68.3006C230.656 68.4074 230.997 68.5588 231.341 68.7734C232.179 69.2972 232.882 70.1109 233.632 71.1021L233.68 71.1497L233.747 71.235C241.896 81.5609 247.844 93.6325 250.917 106.413C257.061 131.915 251.515 160.154 234.875 180.722L234.874 180.724C233.006 183.026 230.888 185.263 228.797 187.339C228.796 187.34 228.795 187.341 228.794 187.342L228.773 187.364C228.772 187.364 228.771 187.365 228.771 187.366C228.148 187.992 227.248 188.511 226.51 188.857C226.118 189.04 225.713 189.202 225.333 189.323C224.993 189.43 224.528 189.552 224.069 189.555L224.057 189.556L224.046 189.556C222.413 189.547 220.899 188.655 219.863 187.654C218.836 186.661 217.879 185.17 217.875 183.524V183.519C217.875 182.598 218.074 181.79 218.583 180.932C219.029 180.181 219.706 179.408 220.547 178.498L220.629 178.41L220.721 178.333L222.272 74.0781C222.272 74.077 222.272 74.0759 222.272 74.0748Z" fill="#195245" stroke="#195245" stroke-width="3.7"/>
<path d="M209.78 113.589C207.576 104.443 203.321 95.8099 197.41 88.4992L197.38 88.4629L197.353 88.4251C196.621 87.4205 195.965 86.1015 195.965 84.597C195.961 82.9474 196.817 81.4492 197.851 80.4166C198.887 79.3827 200.386 78.5311 202.033 78.527L202.052 78.5269L202.072 78.5273C204.262 78.568 206.103 80.0302 207.316 81.5712C214.078 90.1403 218.996 100.17 221.555 110.783L221.555 110.784C226.653 131.964 222.07 155.384 208.228 172.496L208.228 172.496C206.669 174.421 204.936 176.285 203.207 178.005C202.609 178.605 201.782 179.109 201.047 179.457C200.35 179.787 199.41 180.131 198.566 180.136L198.564 180.136C196.914 180.144 195.392 179.311 194.332 178.288C193.276 177.269 192.379 175.771 192.374 174.104V174.099C192.374 172.116 193.424 170.852 194.803 169.356L194.847 169.291L194.98 169.158C196.422 167.732 197.553 166.439 198.807 164.884L198.809 164.881C210.077 150.959 214.027 131.216 209.78 113.589ZM209.78 113.589L211.578 113.156M209.78 113.589L211.578 113.156M211.578 113.156C215.95 131.301 211.902 151.643 200.247 166.045L197.815 84.5945C197.815 85.5615 198.241 86.5027 198.848 87.3359C204.933 94.8607 209.31 103.743 211.578 113.156Z" fill="#195245" stroke="#195245" stroke-width="3.7"/>
<path d="M169.615 158.395C169.607 156.313 170.756 154.935 171.84 153.772L171.867 153.743L171.896 153.715C172.796 152.83 173.479 152.051 174.275 151.067L174.275 151.067C181.217 142.488 183.706 130.172 181.069 119.222L181.069 119.221C179.699 113.527 177.034 108.119 173.354 103.564L173.313 103.514L173.276 103.46C172.503 102.352 171.972 101.239 171.971 99.7623C171.958 96.5586 174.776 93.7855 177.947 93.7779L178.176 93.7774L178.22 93.7882C180.337 93.8836 181.862 95.1435 182.976 96.5126L182.985 96.5233L171.465 158.387M169.615 158.395L171.465 158.387M169.615 158.395C169.615 158.394 169.615 158.393 169.615 158.392L171.465 158.387M169.615 158.395C169.625 161.632 172.507 164.362 175.671 164.347M171.465 158.387C171.47 160.568 173.486 162.507 175.662 162.497M175.671 164.347L175.662 162.497M175.671 164.347C175.671 164.347 175.671 164.347 175.671 164.347L175.662 162.497M175.671 164.347C177.367 164.339 179.085 163.413 180.122 162.371C181.303 161.2 182.486 159.927 183.56 158.599C193.05 146.869 196.174 130.887 192.69 116.428L190.892 116.86L192.69 116.426C192.69 116.427 192.69 116.427 192.69 116.427L175.662 162.497" fill="#195245" stroke="#195245" stroke-width="3.7"/>
<path d="M129.103 116.376C129.529 116.998 130.471 116.998 130.897 116.376C134.486 111.138 139.369 108 146.053 108C150.841 108 155.188 109.816 158.344 112.751C161.529 115.712 163.5 119.804 163.5 124.325C163.5 132.155 159.36 139.896 153.151 147.594C148.199 153.733 142.563 159.274 136.81 164.671C132.988 168.256 127.012 168.256 123.19 164.671C117.437 159.274 111.801 153.733 106.849 147.594C100.64 139.896 96.5 132.155 96.5 124.325C96.5 119.804 98.4708 115.712 101.656 112.751C104.812 109.816 109.159 108 113.947 108C120.631 108 125.514 111.138 129.103 116.376Z" fill="#195245"/>
</svg>
