<svg width="150" height="100" viewBox="0 0 150 100" fill="none" xmlns="http://www.w3.org/2000/svg">
<g clip-path="url(#clip0_4460_33)">
<path d="M55.481 91.3727C37.6099 89.8102 21.8262 83.1818 11.5601 72.9157C5.70069 67.0685 2.14845 60.7208 0.549326 53.2379C-0.183096 49.8322 -0.183096 44.1925 0.561533 40.7501C2.79542 30.3497 9.50929 21.2555 20.0928 14.3097C44.2261 -1.51061 81.2012 -1.43737 105.115 14.4928C108.289 16.6046 110.339 18.2892 113.22 21.1212C116.846 24.6979 119.397 28.2623 122.083 33.4869C122.18 33.6823 122.681 33.9264 123.181 34.0241C124.878 34.3781 127.136 35.6964 128.955 37.3932C130.371 38.7116 131.458 40.152 134.155 44.2291C136.877 48.3429 149.182 67.337 149.927 68.5822C150.22 69.0704 149.646 69.8395 148.999 69.8395C148.535 69.8395 148.218 69.5343 147.534 68.4601C147.058 67.7033 143.921 62.8327 140.564 57.6325C128.687 39.2487 128.052 38.3942 124.744 36.734L123.01 35.8673H117.908C112.805 35.8673 112.805 35.8673 112.683 36.4044C112.012 39.3463 111.877 40.0665 112.024 40.2008C112.122 40.2863 115.015 41.9342 118.457 43.8629L124.719 47.3663L124.329 48.1842C124.109 48.6359 123.865 49.0021 123.779 49.0021C123.694 49.0021 118.42 46.0846 112.061 42.5079C105.701 38.9435 100.122 35.9161 99.6704 35.7941C97.8638 35.2936 95.0806 37.2955 95.0806 39.1022C95.0806 40.9332 95.6177 41.4581 106.799 50.6134C113.77 56.3263 117.761 59.7565 118.372 60.5621C119.482 62.0392 120.605 64.212 121.631 66.8854C123.45 71.5973 126.404 74.2218 131.25 75.4425L132.849 75.8453L132.715 76.712C132.642 77.1881 132.544 77.6276 132.483 77.6886C132.275 77.9205 129.065 76.8952 127.209 76.004C124.304 74.6124 122.302 72.6227 120.337 69.1559C120.325 69.1315 119.177 69.5221 117.81 70.0226C115.369 70.9137 115.247 70.9869 112.939 73.2452C103.088 82.8644 88.9526 89.0045 71.8994 91.0919C69.104 91.4826 58.4351 91.6412 55.481 91.3727ZM72.4609 88.4186C80.2857 87.381 86.3648 85.8307 92.7124 83.2306C99.3774 80.4962 105.676 76.5778 110.071 72.403L111.804 70.755L107.434 68.6676C102.771 66.4337 102.307 66.0675 101.709 64.0778C101.331 62.8204 101.758 61.4777 102.954 60.1959L103.882 59.1827L101.855 57.6447C100.256 56.424 99.7559 55.8991 99.4385 55.0934C98.938 53.7872 99.1211 52.3712 99.9268 51.236L100.537 50.3693L94.1406 49.2462C90.625 48.6237 87.3413 48.0011 86.853 47.8546C85.8887 47.5739 84.9243 46.4752 84.668 45.4132C84.5337 44.8395 87.6709 29.5319 88.3667 27.3468C88.6841 26.3703 90.0147 25.1862 91.0278 25.0031C92.0899 24.8078 110.938 28.1159 111.877 28.6652C113.367 29.5319 113.831 30.9235 113.367 33.0719L113.171 33.963H114.209C114.783 33.963 116.138 33.8898 117.224 33.8043L119.202 33.6456L118.225 31.8268C115.283 26.3458 109.924 20.8038 103.32 16.4093C100.232 14.3585 93.6524 11.1115 89.6851 9.69545C84.0454 7.68129 77.2217 6.16761 70.6665 5.48402C67.0654 5.1056 57.6538 5.11781 54.1626 5.49623C45.8008 6.39955 38.208 8.29164 31.5674 11.1237C16.1865 17.6788 5.84718 28.5431 3.19825 40.921C2.50245 44.1559 2.45362 49.82 3.08839 52.7619C4.4922 59.2682 7.54395 64.8956 12.5122 70.1325C22.6441 80.8014 38.1226 87.3688 56.6773 88.8458C59.1675 89.0411 69.9341 88.7482 72.4609 88.4186ZM69.0796 76.7731C68.1274 76.4923 67.1509 75.3571 66.9434 74.2706C66.8091 73.5626 66.9678 73.0744 67.981 71.109C72.0825 63.1744 73.8648 55.8746 73.8648 47.0245C73.8648 38.4674 72.29 31.8024 68.3716 23.819C67.5293 22.11 66.8457 20.5109 66.8457 20.2789C66.8457 19.4244 67.5537 18.1915 68.3228 17.7155C69.3726 17.0563 71.1426 17.1784 71.9971 17.9718C72.3267 18.277 73.169 19.6686 73.877 21.0602C76.6846 26.5656 78.6011 32.608 79.5532 38.8947C80.1392 42.7887 80.2612 50.1618 79.7852 53.7262C78.9185 60.2936 77.1851 66.1652 74.4019 71.9025C72.7173 75.3693 71.6675 76.7975 70.7886 76.7975C70.6177 76.7975 70.3247 76.8463 70.1538 76.8952C69.9829 76.944 69.4946 76.8952 69.0796 76.7731ZM57.666 70.8038C56.2012 70.3766 55.1392 68.57 55.5664 67.2272C55.6641 66.8976 56.3599 65.3961 57.1045 63.8825C60.2417 57.4738 61.5479 50.6134 60.9131 43.8751C60.3882 38.3331 59.3994 34.8419 56.897 29.7394C55.2246 26.3092 55.1392 25.7843 56.1157 24.3927C57.0435 23.0744 59.3628 22.8668 60.5713 23.9777C61.4136 24.7467 64.0381 30.2277 65.0513 33.3283C68.396 43.5822 67.8833 54.6051 63.5986 64.6759C61.3892 69.8395 59.8389 71.4386 57.666 70.8038ZM45.8984 64.7492C44.9951 64.3463 44.2139 63.382 43.9941 62.4176C43.8599 61.8317 44.0918 61.1725 45.166 58.9996C49.1211 50.9918 49.1577 43.2892 45.3003 35.4645C43.6035 32.0343 43.5669 31.3507 44.9951 29.9957C45.7031 29.3244 46.0083 29.2145 46.9971 29.2145C48.6694 29.2145 49.5361 30.0568 51.0254 33.1207C53.3203 37.8327 54.2603 41.922 54.2481 47.1588C54.2358 52.5421 53.3569 56.2409 50.9155 61.2091C49.5117 64.0534 48.8159 64.8102 47.4121 64.9933C46.9849 65.0299 46.3013 64.9323 45.8984 64.7492ZM34.9121 59.1095C34.1919 58.8165 33.374 57.84 33.1299 56.9855C32.8613 56.0333 33.0811 55.2765 34.1553 53.5065C35.5469 51.2238 35.8643 50.0031 35.8643 47.0245C35.8643 44.046 35.5469 42.8131 34.1553 40.5426C33.6792 39.7736 33.2153 38.8458 33.1055 38.4796C32.6538 36.9782 33.9111 35.1349 35.5957 34.8175C37.0239 34.549 38.0005 35.1837 39.3189 37.2345C43.1152 43.1671 43.1152 51.0773 39.3189 56.9611C37.9761 59.0241 36.4868 59.7565 34.9121 59.1095ZM116.736 68.3136C118.005 67.8619 119.104 67.4347 119.177 67.3615C119.25 67.2882 119.006 66.4826 118.628 65.5548C117.871 63.6627 117.993 63.7116 115.283 64.2243C112.366 64.7858 110.669 64.2853 107.471 61.9293C106.604 61.2824 105.701 60.7575 105.481 60.7575C105.249 60.7575 104.761 61.087 104.37 61.5021C103.552 62.381 103.43 63.7482 104.089 64.566C104.675 65.2741 112.695 69.0949 113.647 69.1193C114.075 69.1315 115.454 68.7653 116.736 68.3136ZM115.466 62.1735C116.65 61.9293 116.785 61.8561 116.577 61.4655C116.345 61.0382 105.249 51.8341 104.285 51.2604C103.491 50.7965 102.844 50.9064 102.185 51.6144C100.256 53.6774 100.488 54.1168 105.481 57.9376C111.511 62.5641 112.158 62.8327 115.466 62.1735ZM100.574 48.2208C100.574 48.1598 99.3164 47.0734 97.7783 45.8161C93.9819 42.6911 93.1641 41.5192 93.1641 39.1998C93.1641 37.2711 94.458 35.4035 96.5332 34.3292C97.5586 33.7921 99.4019 33.6334 100.439 33.9752C101.172 34.2194 104.492 36.0138 109.082 38.6505L110.046 39.212L110.84 35.4279C111.658 31.5582 111.67 30.5328 110.913 30.3009C110.681 30.2277 106.25 29.422 101.074 28.5065C91.8701 26.8829 90.8569 26.7853 90.4297 27.4811C90.1978 27.8473 86.6943 44.0827 86.6943 44.7662C86.6943 45.108 86.8652 45.5353 87.085 45.7184C87.2925 45.9015 90.2832 46.5485 93.7256 47.1588C100.366 48.3551 100.574 48.3917 100.574 48.2208Z" fill="white"/>
</g>
<defs>
<clipPath id="clip0_4460_33">
<rect width="150" height="100" fill="white"/>
</clipPath>
</defs>
</svg>
