<svg width="38" height="38" fill="none" xmlns="http://www.w3.org/2000/svg"><path d="M25.841 33.795H5.07a1.69 1.69 0 0 1-1.69-1.69v-6.758a1.69 1.69 0 1 0-3.379 0v6.758a5.07 5.07 0 0 0 5.07 5.07H25.84a1.69 1.69 0 0 0 0-3.38Zm9.644-23.656a1.69 1.69 0 0 0-1.69 1.69v20.276a1.69 1.69 0 0 1-1.69 1.69h-6.758a1.69 1.69 0 1 0 0 3.38h6.758a5.07 5.07 0 0 0 5.07-5.07V11.828a1.69 1.69 0 0 0-1.69-1.69ZM32.105 0h-6.758a1.69 1.69 0 1 0 0 3.38h6.758a1.69 1.69 0 0 1 1.69 1.69v6.758a1.69 1.69 0 0 0 3.38 0V5.07A5.07 5.07 0 0 0 32.105 0ZM1.69 27.036a1.69 1.69 0 0 0 1.69-1.69V5.07a1.69 1.69 0 0 1 1.69-1.69h22.74a1.69 1.69 0 1 0 0-3.379H5.07A5.07 5.07 0 0 0 0 5.07v20.276a1.69 1.69 0 0 0 1.69 1.69ZM15.208 6.76h-6.76A1.69 1.69 0 0 0 6.76 8.45v6.759a1.69 1.69 0 0 0 1.69 1.69h6.759a1.69 1.69 0 0 0 1.69-1.69v-6.76a1.69 1.69 0 0 0-1.69-1.689Zm-1.69 6.76h-3.38v-3.38h3.38v3.38Zm8.449 3.379h6.759a1.69 1.69 0 0 0 1.69-1.69v-6.76a1.69 1.69 0 0 0-1.69-1.689h-6.76a1.69 1.69 0 0 0-1.689 1.69v6.759a1.69 1.69 0 0 0 1.69 1.69Zm1.69-6.76h3.38v3.38h-3.38v-3.38Zm-8.45 10.14H8.45a1.69 1.69 0 0 0-1.69 1.689v6.759a1.69 1.69 0 0 0 1.69 1.69h6.759a1.69 1.69 0 0 0 1.69-1.69v-6.76a1.69 1.69 0 0 0-1.69-1.689Zm-1.689 6.758h-3.38v-3.38h3.38v3.38Zm8.449-1.69a1.69 1.69 0 0 0 1.69-1.69 1.69 1.69 0 1 0 0-3.379h-1.69a1.69 1.69 0 0 0-1.69 1.69v1.69a1.69 1.69 0 0 0 1.69 1.69Zm6.759-5.069a1.69 1.69 0 0 0-1.69 1.69v5.07a1.69 1.69 0 0 0 0 3.379h1.69a1.69 1.69 0 0 0 1.69-1.69v-6.76a1.69 1.69 0 0 0-1.69-1.689Zm-6.76 6.76a1.69 1.69 0 1 0 0 3.377 1.69 1.69 0 0 0 0-3.378Z" fill="currentColor"/></svg>