<svg width="300" height="300" viewBox="0 0 300 300" fill="none" xmlns="http://www.w3.org/2000/svg">
<circle cx="147.5" cy="148.5" r="104.5" fill="white"/>
<path fill-rule="evenodd" clip-rule="evenodd" d="M258 150C258 209.647 209.647 258 150 258C90.3532 258 42 209.647 42 150C42 90.3532 90.3532 42 150 42C209.647 42 258 90.3532 258 150ZM150 250.961C205.759 250.961 250.961 205.759 250.961 150C250.961 94.2407 205.759 49.0388 150 49.0388C94.2407 49.0388 49.0388 94.2407 49.0388 150C49.0388 205.759 94.2407 250.961 150 250.961Z" fill="#F73C3E"/>
<mask id="path-3-inside-1_3913_105" fill="white">
<path fill-rule="evenodd" clip-rule="evenodd" d="M143.344 75.1921C129.448 76.4373 117.15 82.8366 105.452 94.9093C97.8468 102.758 91.2763 112.029 85.1569 123.545C81.1979 130.996 76.2628 142.798 73.8154 150.669C72.1119 156.147 73.0246 159.885 77.0539 163.933C78.7586 165.645 79.5592 166.186 82.5591 167.652L86.0694 169.368L87.15 171.481C88.3599 173.847 90.181 175.688 92.2964 176.682C94.3452 177.646 98.3349 178.298 106.38 178.986C110.915 179.373 113.76 179.73 113.76 179.91C113.76 180.071 113.133 182.229 112.367 184.704C110.713 190.053 110.388 191.887 110.398 195.814C110.433 209.34 119.33 220.838 132.543 224.435L135.265 225.176L149.622 225.274C162.949 225.365 164.169 225.333 166.63 224.827C172.388 223.644 177.259 220.941 181.162 216.762C185.257 212.377 187.663 207.191 188.316 201.339C188.791 197.088 188.37 193.563 186.631 187.237C185.865 184.453 185.152 181.781 185.046 181.299L184.854 180.422L187.469 180.223C195.881 179.581 203.031 178.178 206.291 176.529C207.558 175.887 211.34 172.055 212.063 170.68C212.278 170.271 213.126 169.765 214.452 169.253C217.541 168.061 220.758 166.056 222.321 164.349C225.023 161.397 226.421 157.334 226.08 153.427C225.845 150.72 222.932 142.176 220.16 136.058C214.112 122.713 207.781 112.029 199.329 100.905C195.738 96.1789 192.734 92.8622 189.494 90.0457C180.519 82.2435 170.998 77.5191 160.702 75.7593C156.621 75.0619 147.956 74.7788 143.344 75.1921ZM157.333 76.1597C161.02 76.5607 164.511 77.2657 167.242 78.1608C167.977 78.4012 168.578 78.636 168.578 78.6824C168.578 78.7285 168.267 79.4458 167.887 80.2765C166.617 83.0531 166.251 85.1123 166.396 88.6689C166.501 91.2115 166.682 92.3186 167.237 93.8059C169.235 99.1619 173.519 103.357 178.698 105.028C181.252 105.852 186.087 106.054 188.542 105.439C191.082 104.803 194.671 102.98 196.344 101.475L197.753 100.208L199.788 102.904C203.897 108.349 209.052 116.395 212.929 123.413C214.735 126.685 216.429 130.05 216.316 130.144C216.267 130.185 215.531 130.44 214.681 130.712C208.977 132.536 204.326 137.122 202.557 142.667C201.726 145.271 201.557 149.086 202.154 151.77C203.113 156.08 205.893 160.052 209.839 162.749C211.831 164.111 215.871 165.712 217.352 165.726C219.195 165.743 218.987 166.184 216.572 167.381C209.282 170.993 200.246 171.17 193.578 167.83C189.284 165.68 185.227 162.035 183.722 158.976L182.997 157.5L182.81 158.907C181.803 166.498 175.633 172.815 166.253 175.859C160.709 177.658 158.31 177.957 149.462 177.957C142.278 177.957 141.13 177.892 138.351 177.328C131.084 175.853 125.888 173.328 121.958 169.359C119.062 166.436 117.069 162.891 116.666 159.949C116.572 159.259 116.391 158.695 116.265 158.695C116.139 158.695 115.664 159.233 115.209 159.89C114.059 161.552 110.593 164.828 108.467 166.262C101.21 171.159 92.6282 171.434 83.3265 167.067L80.8645 165.911L83.4775 165.036C88.1342 163.476 91.8166 160.452 93.9087 156.47C98.2477 148.21 95.8489 138.18 88.3313 133.151C87.1621 132.369 85.4476 131.452 84.521 131.114C83.5947 130.776 82.8365 130.452 82.8365 130.393C82.8365 130.099 87.0567 121.904 88.5354 119.327C91.0145 115.006 94.603 109.586 97.8415 105.271C99.4068 103.185 100.768 101.367 100.865 101.23C100.964 101.093 101.723 101.489 102.552 102.108C105.823 104.552 108.63 105.55 112.776 105.744C116.499 105.918 118.794 105.461 121.912 103.923C124.424 102.685 127.768 99.6298 129.186 97.2762C132.129 92.3948 132.645 86.6266 130.61 81.3732C130.162 80.2177 129.887 79.186 130 79.0806C130.417 78.6905 134.873 77.4398 137.834 76.8819C143.933 75.7326 150.998 75.4708 157.333 76.1597ZM171.743 79.9323C179.251 82.9156 187.78 88.9937 193.681 95.5656C195.07 97.1122 196.403 98.6788 196.645 99.0466C197.066 99.6906 197.043 99.7488 196.013 100.593C194.124 102.144 191.541 103.589 189.521 104.225C186.672 105.123 181.876 105.107 179.12 104.191C172.059 101.845 167.183 95.3247 167.096 88.1138C167.08 86.7992 167.234 85.0277 167.438 84.177C167.816 82.604 169.262 79.1154 169.537 79.1154C169.619 79.1154 170.613 79.483 171.743 79.9323ZM129.508 80.8906C132.027 86.5872 131.137 93.3408 127.192 98.4564C122.898 104.026 114.753 106.394 107.959 104.047C105.828 103.311 105.123 102.929 103.02 101.371L101.698 100.392L102.88 98.9732C106.779 94.2904 113.593 88.2795 119.101 84.6649C121.964 82.7857 127.86 79.6953 128.604 79.6835C128.806 79.6804 129.213 80.2236 129.508 80.8906ZM147.494 102.876C140.479 105.115 141.982 115.486 149.321 115.486C154.806 115.486 157.855 109.122 154.339 105.013C152.546 102.918 149.927 102.1 147.494 102.876ZM152.046 104.178C153.423 104.87 154.434 106.249 154.833 107.98C155.504 110.886 153.609 113.821 150.595 114.544C147.095 115.384 143.799 112.726 143.799 109.063C143.799 104.75 148.107 102.197 152.046 104.178ZM118.872 125.118C116.47 126.316 114.456 129.333 113.731 132.825C113.299 134.899 113.574 138.752 114.301 140.839C115.016 142.888 116.581 145.022 118.209 146.166C119.233 146.886 119.734 147.032 121.486 147.121C123.333 147.214 123.71 147.14 125.014 146.43C128.352 144.613 130.213 140.737 130.196 135.637C130.187 132.772 129.706 130.844 128.467 128.701C127.63 127.253 125.571 125.323 124.294 124.789C122.755 124.146 120.555 124.279 118.872 125.118ZM175.465 124.733C171.138 126.272 168.387 132.442 169.401 138.335C170.314 143.645 173.609 147.222 177.587 147.222C185.439 147.222 188.953 134.241 183.051 127.036C181.229 124.812 178 123.832 175.465 124.733ZM121.62 127.054C123.688 128.124 124.306 130.816 122.875 132.517C120.082 135.838 114.88 132.087 117.139 128.38C118.079 126.838 120.065 126.25 121.62 127.054ZM177.966 127.382C179.065 128.181 179.68 130.004 179.271 131.246C178.883 132.423 177.648 133.545 176.455 133.808C174.722 134.188 172.232 132.131 172.232 130.318C172.232 129.195 173.15 127.726 174.222 127.136C175.364 126.506 176.901 126.607 177.966 127.382ZM218.481 134.723C220.524 139.256 222.749 144.971 224.093 149.134C225.066 152.149 225.129 152.558 225.034 155.18C224.942 157.721 224.833 158.2 223.909 160.145C222.681 162.729 220.493 165.163 219.396 165.163C217.523 165.163 214.098 164.25 211.87 163.157C207.641 161.083 204.213 156.879 203.039 152.328C202.786 151.348 202.593 149.455 202.593 147.958C202.593 143.246 203.943 139.765 207.061 136.437C209.163 134.193 211.179 132.834 213.912 131.818C216.794 130.747 216.648 130.654 218.481 134.723ZM85.6272 132.583C90.2614 134.823 93.9933 139.626 94.9434 144.574C96.342 151.859 92.3945 159.832 85.7883 163.066C83.8337 164.023 81.0292 164.882 79.8581 164.882C78.9383 164.882 76.0152 161.595 74.9273 159.338C73.4685 156.312 73.4891 154.673 75.0456 149.978C77.8776 141.436 82.0542 131.419 82.784 131.419C83.0223 131.419 84.3017 131.943 85.6272 132.583ZM139.691 147.21C139.217 147.684 139.246 148.016 139.924 149.826C140.703 151.911 142.856 154.237 144.901 155.205C147.702 156.53 151.859 156.401 154.794 154.896C158.602 152.945 161.482 146.885 158.601 146.885C158.089 146.885 157.859 147.19 157.379 148.502C156.584 150.675 155.398 152.032 153.462 152.983C152.079 153.662 151.513 153.774 149.456 153.774C147.452 153.774 146.837 153.659 145.691 153.07C144.019 152.21 142.904 150.88 142.015 148.686C141.495 147.402 141.195 147.007 140.691 146.943C140.333 146.898 139.883 147.018 139.691 147.21ZM187.178 164.46C189.751 166.86 193.133 168.822 196.69 169.977C198.893 170.693 199.978 170.871 202.891 170.995C206.056 171.129 209.229 170.854 210.602 170.327C211.458 169.999 210.978 170.746 208.882 173.002C206.488 175.579 205.644 176.099 202.253 177.082C199.079 178.002 188.434 179.504 185.086 179.504C184.469 179.504 184.328 179.122 182.66 172.929C181.003 166.773 180.918 166.312 181.326 165.688C181.682 165.146 182.532 163.051 183.352 160.698C183.441 160.443 183.756 160.682 184.278 161.401C184.712 162.001 186.018 163.377 187.178 164.46ZM116.42 162.14C116.682 162.952 117.207 164.177 117.587 164.864L118.276 166.111L116.389 172.175C115.351 175.51 114.41 178.346 114.299 178.478C114.073 178.744 104.144 178.017 99.3005 177.38C93.9219 176.672 91.7828 175.812 89.6576 173.506C88.5401 172.293 87.1702 170.013 87.4131 169.77C87.4781 169.706 88.6571 169.922 90.0332 170.252C93.2801 171.03 98.1471 171.082 100.945 170.369C105.771 169.138 110.053 166.612 113.478 162.974C114.638 161.742 115.667 160.719 115.765 160.699C115.863 160.68 116.158 161.328 116.42 162.14ZM123.629 171.971C128.257 175.503 134.733 177.865 141.931 178.645C145.431 179.025 153.345 179.026 157.092 178.647C166.036 177.744 173.397 174.631 178.263 169.697C179.338 168.606 180.255 167.752 180.301 167.798C180.381 167.877 180.732 169.15 184 181.191C187.648 194.634 188 196.694 187.425 201.244C186.632 207.51 184.039 212.691 179.502 217.074C176.232 220.232 172.287 222.482 167.875 223.704C165.734 224.297 165.004 224.332 152.694 224.432C144.701 224.497 138.795 224.424 137.227 224.24C130.04 223.399 124.023 220.476 119.322 215.54C115.797 211.84 113.489 207.693 112.177 202.703C111.547 200.305 111.436 199.29 111.425 195.814C111.41 190.913 111.45 190.733 115.063 179.223C116.543 174.506 118 169.855 118.299 168.888L118.843 167.13L120.197 168.757C120.941 169.652 122.486 171.098 123.629 171.971Z"/>
<path d="M187.178 164.46C189.751 166.86 193.133 168.822 196.69 169.977C198.893 170.693 199.978 170.871 202.891 170.995C206.056 171.129 209.229 170.854 210.602 170.327C211.458 169.999 210.978 170.746 208.882 173.002C206.488 175.579 205.644 176.099 202.253 177.082C199.079 178.002 188.434 179.504 185.086 179.504C184.469 179.504 184.328 179.122 182.66 172.929C181.003 166.773 180.918 166.312 181.326 165.688C181.682 165.146 182.532 163.051 183.352 160.698C183.441 160.443 183.756 160.682 184.278 161.401C184.712 162.001 186.018 163.377 187.178 164.46Z"/>
<path d="M116.42 162.14C116.682 162.952 117.207 164.177 117.587 164.864L118.276 166.111L116.389 172.175C115.351 175.51 114.41 178.346 114.299 178.478C114.073 178.744 104.144 178.017 99.3005 177.38C93.9219 176.672 91.7828 175.812 89.6576 173.506C88.5401 172.293 87.1702 170.013 87.4131 169.77C87.4781 169.706 88.6571 169.922 90.0332 170.252C93.2801 171.03 98.1471 171.082 100.945 170.369C105.771 169.138 110.053 166.612 113.478 162.974C114.638 161.742 115.667 160.719 115.765 160.699C115.863 160.68 116.158 161.328 116.42 162.14Z"/>
<path d="M171.743 79.9323C179.251 82.9156 187.78 88.9937 193.681 95.5656C195.07 97.1122 196.403 98.6788 196.645 99.0466C197.066 99.6906 197.043 99.7488 196.013 100.593C194.124 102.144 191.541 103.589 189.521 104.225C186.672 105.123 181.876 105.107 179.12 104.191C172.059 101.845 167.183 95.3247 167.096 88.1138C167.08 86.7992 167.234 85.0277 167.438 84.177C167.816 82.604 169.262 79.1154 169.537 79.1154C169.619 79.1154 170.613 79.483 171.743 79.9323Z"/>
<path d="M129.508 80.8906C132.027 86.5872 131.137 93.3408 127.192 98.4564C122.898 104.026 114.753 106.394 107.959 104.047C105.828 103.311 105.123 102.929 103.02 101.371L101.698 100.392L102.88 98.9732C106.779 94.2904 113.593 88.2795 119.101 84.6649C121.964 82.7857 127.86 79.6953 128.604 79.6835C128.806 79.6804 129.213 80.2236 129.508 80.8906Z"/>
<path d="M152.046 104.178C153.423 104.87 154.434 106.249 154.833 107.98C155.504 110.886 153.609 113.821 150.595 114.544C147.095 115.384 143.799 112.726 143.799 109.063C143.799 104.75 148.107 102.197 152.046 104.178Z"/>
<path d="M123.629 171.971C128.257 175.503 134.733 177.865 141.931 178.645C145.431 179.025 153.345 179.026 157.092 178.647C166.036 177.744 173.397 174.631 178.263 169.697C179.338 168.606 180.255 167.752 180.301 167.798C180.381 167.877 180.732 169.15 184 181.191C187.648 194.634 188 196.694 187.425 201.244C186.632 207.51 184.039 212.691 179.502 217.074C176.232 220.232 172.287 222.482 167.875 223.704C165.734 224.297 165.004 224.332 152.694 224.432C144.701 224.497 138.795 224.424 137.227 224.24C130.04 223.399 124.023 220.476 119.322 215.54C115.797 211.84 113.489 207.693 112.177 202.703C111.547 200.305 111.436 199.29 111.425 195.814C111.41 190.913 111.45 190.733 115.063 179.223C116.543 174.506 118 169.855 118.299 168.888L118.843 167.13L120.197 168.757C120.941 169.652 122.486 171.098 123.629 171.971Z"/>
<path d="M85.6272 132.583C90.2614 134.823 93.9933 139.626 94.9434 144.574C96.342 151.859 92.3945 159.832 85.7883 163.066C83.8337 164.023 81.0292 164.882 79.8581 164.882C78.9383 164.882 76.0152 161.595 74.9273 159.338C73.4685 156.312 73.4891 154.673 75.0456 149.978C77.8776 141.436 82.0542 131.419 82.784 131.419C83.0223 131.419 84.3017 131.943 85.6272 132.583Z"/>
<path d="M218.481 134.723C220.524 139.256 222.749 144.971 224.093 149.134C225.066 152.149 225.129 152.558 225.034 155.18C224.942 157.721 224.833 158.2 223.909 160.145C222.681 162.729 220.493 165.163 219.396 165.163C217.523 165.163 214.098 164.25 211.87 163.157C207.641 161.083 204.213 156.879 203.039 152.328C202.786 151.348 202.593 149.455 202.593 147.958C202.593 143.246 203.943 139.765 207.061 136.437C209.163 134.193 211.179 132.834 213.912 131.818C216.794 130.747 216.648 130.654 218.481 134.723Z"/>
<path d="M121.62 127.054C123.688 128.124 124.306 130.816 122.875 132.517C120.082 135.838 114.88 132.087 117.139 128.38C118.079 126.838 120.065 126.25 121.62 127.054Z"/>
<path d="M177.966 127.382C179.065 128.181 179.68 130.004 179.271 131.246C178.883 132.423 177.648 133.545 176.455 133.808C174.722 134.188 172.232 132.131 172.232 130.318C172.232 129.195 173.15 127.726 174.222 127.136C175.364 126.506 176.901 126.607 177.966 127.382Z"/>
<path fill-rule="evenodd" clip-rule="evenodd" d="M157.333 76.1597C161.02 76.5607 164.511 77.2657 167.242 78.1608C167.977 78.4012 168.578 78.636 168.578 78.6824C168.578 78.7285 168.267 79.4458 167.887 80.2765C166.617 83.0531 166.251 85.1123 166.396 88.6689C166.501 91.2115 166.682 92.3186 167.237 93.8059C169.235 99.1619 173.519 103.357 178.698 105.028C181.252 105.852 186.087 106.054 188.542 105.439C191.082 104.803 194.671 102.98 196.344 101.475L197.753 100.208L199.788 102.904C203.897 108.349 209.052 116.395 212.929 123.413C214.735 126.685 216.429 130.05 216.316 130.144C216.267 130.185 215.531 130.44 214.681 130.712C208.977 132.536 204.326 137.122 202.557 142.667C201.726 145.271 201.557 149.086 202.154 151.77C203.113 156.08 205.893 160.052 209.839 162.749C211.831 164.111 215.871 165.712 217.352 165.726C219.195 165.743 218.987 166.184 216.572 167.381C209.282 170.993 200.246 171.17 193.578 167.83C189.284 165.68 185.227 162.035 183.722 158.976L182.997 157.5L182.81 158.907C181.803 166.498 175.633 172.815 166.253 175.859C160.709 177.658 158.31 177.957 149.462 177.957C142.278 177.957 141.13 177.892 138.351 177.328C131.084 175.853 125.888 173.328 121.958 169.359C119.062 166.436 117.069 162.891 116.666 159.949C116.572 159.259 116.391 158.695 116.265 158.695C116.139 158.695 115.664 159.233 115.209 159.89C114.059 161.552 110.593 164.828 108.467 166.262C101.21 171.159 92.6282 171.434 83.3265 167.067L80.8645 165.911L83.4775 165.036C88.1342 163.476 91.8166 160.452 93.9087 156.47C98.2477 148.21 95.8489 138.18 88.3313 133.151C87.1621 132.369 85.4476 131.452 84.521 131.114C83.5947 130.776 82.8365 130.452 82.8365 130.393C82.8365 130.099 87.0567 121.904 88.5354 119.327C91.0145 115.006 94.603 109.586 97.8415 105.271C99.4068 103.185 100.768 101.367 100.865 101.23C100.964 101.093 101.723 101.489 102.552 102.108C105.823 104.552 108.63 105.55 112.776 105.744C116.499 105.918 118.794 105.461 121.912 103.923C124.424 102.685 127.768 99.6298 129.186 97.2762C132.129 92.3948 132.645 86.6266 130.61 81.3732C130.162 80.2177 129.887 79.186 130 79.0806C130.417 78.6905 134.873 77.4398 137.834 76.8819C143.933 75.7326 150.998 75.4708 157.333 76.1597ZM149.321 115.486C141.982 115.486 140.479 105.115 147.494 102.876C149.927 102.1 152.546 102.918 154.339 105.013C157.855 109.122 154.806 115.486 149.321 115.486ZM113.731 132.825C114.456 129.333 116.47 126.316 118.872 125.118C120.555 124.279 122.755 124.146 124.294 124.789C125.571 125.323 127.63 127.253 128.467 128.701C129.706 130.844 130.187 132.772 130.196 135.637C130.213 140.737 128.352 144.613 125.014 146.43C123.71 147.14 123.333 147.214 121.486 147.121C119.734 147.032 119.233 146.886 118.209 146.166C116.581 145.022 115.016 142.888 114.301 140.839C113.574 138.752 113.299 134.899 113.731 132.825ZM169.401 138.335C168.387 132.442 171.138 126.272 175.465 124.733C178 123.832 181.229 124.812 183.051 127.036C188.953 134.241 185.439 147.222 177.587 147.222C173.609 147.222 170.314 143.645 169.401 138.335ZM139.924 149.826C139.246 148.016 139.217 147.684 139.691 147.21C139.883 147.018 140.333 146.898 140.691 146.943C141.195 147.007 141.495 147.402 142.015 148.686C142.904 150.88 144.019 152.21 145.691 153.07C146.837 153.659 147.452 153.774 149.456 153.774C151.513 153.774 152.079 153.662 153.462 152.983C155.398 152.032 156.584 150.675 157.379 148.502C157.859 147.19 158.089 146.885 158.601 146.885C161.482 146.885 158.602 152.945 154.794 154.896C151.859 156.401 147.702 156.53 144.901 155.205C142.856 154.237 140.703 151.911 139.924 149.826Z"/>
</mask>
<path fill-rule="evenodd" clip-rule="evenodd" d="M143.344 75.1921C129.448 76.4373 117.15 82.8366 105.452 94.9093C97.8468 102.758 91.2763 112.029 85.1569 123.545C81.1979 130.996 76.2628 142.798 73.8154 150.669C72.1119 156.147 73.0246 159.885 77.0539 163.933C78.7586 165.645 79.5592 166.186 82.5591 167.652L86.0694 169.368L87.15 171.481C88.3599 173.847 90.181 175.688 92.2964 176.682C94.3452 177.646 98.3349 178.298 106.38 178.986C110.915 179.373 113.76 179.73 113.76 179.91C113.76 180.071 113.133 182.229 112.367 184.704C110.713 190.053 110.388 191.887 110.398 195.814C110.433 209.34 119.33 220.838 132.543 224.435L135.265 225.176L149.622 225.274C162.949 225.365 164.169 225.333 166.63 224.827C172.388 223.644 177.259 220.941 181.162 216.762C185.257 212.377 187.663 207.191 188.316 201.339C188.791 197.088 188.37 193.563 186.631 187.237C185.865 184.453 185.152 181.781 185.046 181.299L184.854 180.422L187.469 180.223C195.881 179.581 203.031 178.178 206.291 176.529C207.558 175.887 211.34 172.055 212.063 170.68C212.278 170.271 213.126 169.765 214.452 169.253C217.541 168.061 220.758 166.056 222.321 164.349C225.023 161.397 226.421 157.334 226.08 153.427C225.845 150.72 222.932 142.176 220.16 136.058C214.112 122.713 207.781 112.029 199.329 100.905C195.738 96.1789 192.734 92.8622 189.494 90.0457C180.519 82.2435 170.998 77.5191 160.702 75.7593C156.621 75.0619 147.956 74.7788 143.344 75.1921ZM157.333 76.1597C161.02 76.5607 164.511 77.2657 167.242 78.1608C167.977 78.4012 168.578 78.636 168.578 78.6824C168.578 78.7285 168.267 79.4458 167.887 80.2765C166.617 83.0531 166.251 85.1123 166.396 88.6689C166.501 91.2115 166.682 92.3186 167.237 93.8059C169.235 99.1619 173.519 103.357 178.698 105.028C181.252 105.852 186.087 106.054 188.542 105.439C191.082 104.803 194.671 102.98 196.344 101.475L197.753 100.208L199.788 102.904C203.897 108.349 209.052 116.395 212.929 123.413C214.735 126.685 216.429 130.05 216.316 130.144C216.267 130.185 215.531 130.44 214.681 130.712C208.977 132.536 204.326 137.122 202.557 142.667C201.726 145.271 201.557 149.086 202.154 151.77C203.113 156.08 205.893 160.052 209.839 162.749C211.831 164.111 215.871 165.712 217.352 165.726C219.195 165.743 218.987 166.184 216.572 167.381C209.282 170.993 200.246 171.17 193.578 167.83C189.284 165.68 185.227 162.035 183.722 158.976L182.997 157.5L182.81 158.907C181.803 166.498 175.633 172.815 166.253 175.859C160.709 177.658 158.31 177.957 149.462 177.957C142.278 177.957 141.13 177.892 138.351 177.328C131.084 175.853 125.888 173.328 121.958 169.359C119.062 166.436 117.069 162.891 116.666 159.949C116.572 159.259 116.391 158.695 116.265 158.695C116.139 158.695 115.664 159.233 115.209 159.89C114.059 161.552 110.593 164.828 108.467 166.262C101.21 171.159 92.6282 171.434 83.3265 167.067L80.8645 165.911L83.4775 165.036C88.1342 163.476 91.8166 160.452 93.9087 156.47C98.2477 148.21 95.8489 138.18 88.3313 133.151C87.1621 132.369 85.4476 131.452 84.521 131.114C83.5947 130.776 82.8365 130.452 82.8365 130.393C82.8365 130.099 87.0567 121.904 88.5354 119.327C91.0145 115.006 94.603 109.586 97.8415 105.271C99.4068 103.185 100.768 101.367 100.865 101.23C100.964 101.093 101.723 101.489 102.552 102.108C105.823 104.552 108.63 105.55 112.776 105.744C116.499 105.918 118.794 105.461 121.912 103.923C124.424 102.685 127.768 99.6298 129.186 97.2762C132.129 92.3948 132.645 86.6266 130.61 81.3732C130.162 80.2177 129.887 79.186 130 79.0806C130.417 78.6905 134.873 77.4398 137.834 76.8819C143.933 75.7326 150.998 75.4708 157.333 76.1597ZM171.743 79.9323C179.251 82.9156 187.78 88.9937 193.681 95.5656C195.07 97.1122 196.403 98.6788 196.645 99.0466C197.066 99.6906 197.043 99.7488 196.013 100.593C194.124 102.144 191.541 103.589 189.521 104.225C186.672 105.123 181.876 105.107 179.12 104.191C172.059 101.845 167.183 95.3247 167.096 88.1138C167.08 86.7992 167.234 85.0277 167.438 84.177C167.816 82.604 169.262 79.1154 169.537 79.1154C169.619 79.1154 170.613 79.483 171.743 79.9323ZM129.508 80.8906C132.027 86.5872 131.137 93.3408 127.192 98.4564C122.898 104.026 114.753 106.394 107.959 104.047C105.828 103.311 105.123 102.929 103.02 101.371L101.698 100.392L102.88 98.9732C106.779 94.2904 113.593 88.2795 119.101 84.6649C121.964 82.7857 127.86 79.6953 128.604 79.6835C128.806 79.6804 129.213 80.2236 129.508 80.8906ZM147.494 102.876C140.479 105.115 141.982 115.486 149.321 115.486C154.806 115.486 157.855 109.122 154.339 105.013C152.546 102.918 149.927 102.1 147.494 102.876ZM152.046 104.178C153.423 104.87 154.434 106.249 154.833 107.98C155.504 110.886 153.609 113.821 150.595 114.544C147.095 115.384 143.799 112.726 143.799 109.063C143.799 104.75 148.107 102.197 152.046 104.178ZM118.872 125.118C116.47 126.316 114.456 129.333 113.731 132.825C113.299 134.899 113.574 138.752 114.301 140.839C115.016 142.888 116.581 145.022 118.209 146.166C119.233 146.886 119.734 147.032 121.486 147.121C123.333 147.214 123.71 147.14 125.014 146.43C128.352 144.613 130.213 140.737 130.196 135.637C130.187 132.772 129.706 130.844 128.467 128.701C127.63 127.253 125.571 125.323 124.294 124.789C122.755 124.146 120.555 124.279 118.872 125.118ZM175.465 124.733C171.138 126.272 168.387 132.442 169.401 138.335C170.314 143.645 173.609 147.222 177.587 147.222C185.439 147.222 188.953 134.241 183.051 127.036C181.229 124.812 178 123.832 175.465 124.733ZM121.62 127.054C123.688 128.124 124.306 130.816 122.875 132.517C120.082 135.838 114.88 132.087 117.139 128.38C118.079 126.838 120.065 126.25 121.62 127.054ZM177.966 127.382C179.065 128.181 179.68 130.004 179.271 131.246C178.883 132.423 177.648 133.545 176.455 133.808C174.722 134.188 172.232 132.131 172.232 130.318C172.232 129.195 173.15 127.726 174.222 127.136C175.364 126.506 176.901 126.607 177.966 127.382ZM218.481 134.723C220.524 139.256 222.749 144.971 224.093 149.134C225.066 152.149 225.129 152.558 225.034 155.18C224.942 157.721 224.833 158.2 223.909 160.145C222.681 162.729 220.493 165.163 219.396 165.163C217.523 165.163 214.098 164.25 211.87 163.157C207.641 161.083 204.213 156.879 203.039 152.328C202.786 151.348 202.593 149.455 202.593 147.958C202.593 143.246 203.943 139.765 207.061 136.437C209.163 134.193 211.179 132.834 213.912 131.818C216.794 130.747 216.648 130.654 218.481 134.723ZM85.6272 132.583C90.2614 134.823 93.9933 139.626 94.9434 144.574C96.342 151.859 92.3945 159.832 85.7883 163.066C83.8337 164.023 81.0292 164.882 79.8581 164.882C78.9383 164.882 76.0152 161.595 74.9273 159.338C73.4685 156.312 73.4891 154.673 75.0456 149.978C77.8776 141.436 82.0542 131.419 82.784 131.419C83.0223 131.419 84.3017 131.943 85.6272 132.583ZM139.691 147.21C139.217 147.684 139.246 148.016 139.924 149.826C140.703 151.911 142.856 154.237 144.901 155.205C147.702 156.53 151.859 156.401 154.794 154.896C158.602 152.945 161.482 146.885 158.601 146.885C158.089 146.885 157.859 147.19 157.379 148.502C156.584 150.675 155.398 152.032 153.462 152.983C152.079 153.662 151.513 153.774 149.456 153.774C147.452 153.774 146.837 153.659 145.691 153.07C144.019 152.21 142.904 150.88 142.015 148.686C141.495 147.402 141.195 147.007 140.691 146.943C140.333 146.898 139.883 147.018 139.691 147.21ZM187.178 164.46C189.751 166.86 193.133 168.822 196.69 169.977C198.893 170.693 199.978 170.871 202.891 170.995C206.056 171.129 209.229 170.854 210.602 170.327C211.458 169.999 210.978 170.746 208.882 173.002C206.488 175.579 205.644 176.099 202.253 177.082C199.079 178.002 188.434 179.504 185.086 179.504C184.469 179.504 184.328 179.122 182.66 172.929C181.003 166.773 180.918 166.312 181.326 165.688C181.682 165.146 182.532 163.051 183.352 160.698C183.441 160.443 183.756 160.682 184.278 161.401C184.712 162.001 186.018 163.377 187.178 164.46ZM116.42 162.14C116.682 162.952 117.207 164.177 117.587 164.864L118.276 166.111L116.389 172.175C115.351 175.51 114.41 178.346 114.299 178.478C114.073 178.744 104.144 178.017 99.3005 177.38C93.9219 176.672 91.7828 175.812 89.6576 173.506C88.5401 172.293 87.1702 170.013 87.4131 169.77C87.4781 169.706 88.6571 169.922 90.0332 170.252C93.2801 171.03 98.1471 171.082 100.945 170.369C105.771 169.138 110.053 166.612 113.478 162.974C114.638 161.742 115.667 160.719 115.765 160.699C115.863 160.68 116.158 161.328 116.42 162.14ZM123.629 171.971C128.257 175.503 134.733 177.865 141.931 178.645C145.431 179.025 153.345 179.026 157.092 178.647C166.036 177.744 173.397 174.631 178.263 169.697C179.338 168.606 180.255 167.752 180.301 167.798C180.381 167.877 180.732 169.15 184 181.191C187.648 194.634 188 196.694 187.425 201.244C186.632 207.51 184.039 212.691 179.502 217.074C176.232 220.232 172.287 222.482 167.875 223.704C165.734 224.297 165.004 224.332 152.694 224.432C144.701 224.497 138.795 224.424 137.227 224.24C130.04 223.399 124.023 220.476 119.322 215.54C115.797 211.84 113.489 207.693 112.177 202.703C111.547 200.305 111.436 199.29 111.425 195.814C111.41 190.913 111.45 190.733 115.063 179.223C116.543 174.506 118 169.855 118.299 168.888L118.843 167.13L120.197 168.757C120.941 169.652 122.486 171.098 123.629 171.971Z" stroke="#F73C3E" stroke-width="0.0695649" mask="url(#path-3-inside-1_3913_105)"/>
<path d="M187.178 164.46C189.751 166.86 193.133 168.822 196.69 169.977C198.893 170.693 199.978 170.871 202.891 170.995C206.056 171.129 209.229 170.854 210.602 170.327C211.458 169.999 210.978 170.746 208.882 173.002C206.488 175.579 205.644 176.099 202.253 177.082C199.079 178.002 188.434 179.504 185.086 179.504C184.469 179.504 184.328 179.122 182.66 172.929C181.003 166.773 180.918 166.312 181.326 165.688C181.682 165.146 182.532 163.051 183.352 160.698C183.441 160.443 183.756 160.682 184.278 161.401C184.712 162.001 186.018 163.377 187.178 164.46Z" stroke="#F73C3E" stroke-width="0.0695649" mask="url(#path-3-inside-1_3913_105)"/>
<path d="M116.42 162.14C116.682 162.952 117.207 164.177 117.587 164.864L118.276 166.111L116.389 172.175C115.351 175.51 114.41 178.346 114.299 178.478C114.073 178.744 104.144 178.017 99.3005 177.38C93.9219 176.672 91.7828 175.812 89.6576 173.506C88.5401 172.293 87.1702 170.013 87.4131 169.77C87.4781 169.706 88.6571 169.922 90.0332 170.252C93.2801 171.03 98.1471 171.082 100.945 170.369C105.771 169.138 110.053 166.612 113.478 162.974C114.638 161.742 115.667 160.719 115.765 160.699C115.863 160.68 116.158 161.328 116.42 162.14Z" stroke="#F73C3E" stroke-width="0.0695649" mask="url(#path-3-inside-1_3913_105)"/>
<path d="M171.743 79.9323C179.251 82.9156 187.78 88.9937 193.681 95.5656C195.07 97.1122 196.403 98.6788 196.645 99.0466C197.066 99.6906 197.043 99.7488 196.013 100.593C194.124 102.144 191.541 103.589 189.521 104.225C186.672 105.123 181.876 105.107 179.12 104.191C172.059 101.845 167.183 95.3247 167.096 88.1138C167.08 86.7992 167.234 85.0277 167.438 84.177C167.816 82.604 169.262 79.1154 169.537 79.1154C169.619 79.1154 170.613 79.483 171.743 79.9323Z" stroke="#F73C3E" stroke-width="0.0695649" mask="url(#path-3-inside-1_3913_105)"/>
<path d="M129.508 80.8906C132.027 86.5872 131.137 93.3408 127.192 98.4564C122.898 104.026 114.753 106.394 107.959 104.047C105.828 103.311 105.123 102.929 103.02 101.371L101.698 100.392L102.88 98.9732C106.779 94.2904 113.593 88.2795 119.101 84.6649C121.964 82.7857 127.86 79.6953 128.604 79.6835C128.806 79.6804 129.213 80.2236 129.508 80.8906Z" stroke="#F73C3E" stroke-width="0.0695649" mask="url(#path-3-inside-1_3913_105)"/>
<path d="M152.046 104.178C153.423 104.87 154.434 106.249 154.833 107.98C155.504 110.886 153.609 113.821 150.595 114.544C147.095 115.384 143.799 112.726 143.799 109.063C143.799 104.75 148.107 102.197 152.046 104.178Z" stroke="#F73C3E" stroke-width="0.0695649" mask="url(#path-3-inside-1_3913_105)"/>
<path d="M123.629 171.971C128.257 175.503 134.733 177.865 141.931 178.645C145.431 179.025 153.345 179.026 157.092 178.647C166.036 177.744 173.397 174.631 178.263 169.697C179.338 168.606 180.255 167.752 180.301 167.798C180.381 167.877 180.732 169.15 184 181.191C187.648 194.634 188 196.694 187.425 201.244C186.632 207.51 184.039 212.691 179.502 217.074C176.232 220.232 172.287 222.482 167.875 223.704C165.734 224.297 165.004 224.332 152.694 224.432C144.701 224.497 138.795 224.424 137.227 224.24C130.04 223.399 124.023 220.476 119.322 215.54C115.797 211.84 113.489 207.693 112.177 202.703C111.547 200.305 111.436 199.29 111.425 195.814C111.41 190.913 111.45 190.733 115.063 179.223C116.543 174.506 118 169.855 118.299 168.888L118.843 167.13L120.197 168.757C120.941 169.652 122.486 171.098 123.629 171.971Z" stroke="#F73C3E" stroke-width="0.0695649" mask="url(#path-3-inside-1_3913_105)"/>
<path d="M85.6272 132.583C90.2614 134.823 93.9933 139.626 94.9434 144.574C96.342 151.859 92.3945 159.832 85.7883 163.066C83.8337 164.023 81.0292 164.882 79.8581 164.882C78.9383 164.882 76.0152 161.595 74.9273 159.338C73.4685 156.312 73.4891 154.673 75.0456 149.978C77.8776 141.436 82.0542 131.419 82.784 131.419C83.0223 131.419 84.3017 131.943 85.6272 132.583Z" stroke="#F73C3E" stroke-width="0.0695649" mask="url(#path-3-inside-1_3913_105)"/>
<path d="M218.481 134.723C220.524 139.256 222.749 144.971 224.093 149.134C225.066 152.149 225.129 152.558 225.034 155.18C224.942 157.721 224.833 158.2 223.909 160.145C222.681 162.729 220.493 165.163 219.396 165.163C217.523 165.163 214.098 164.25 211.87 163.157C207.641 161.083 204.213 156.879 203.039 152.328C202.786 151.348 202.593 149.455 202.593 147.958C202.593 143.246 203.943 139.765 207.061 136.437C209.163 134.193 211.179 132.834 213.912 131.818C216.794 130.747 216.648 130.654 218.481 134.723Z" stroke="#F73C3E" stroke-width="0.0695649" mask="url(#path-3-inside-1_3913_105)"/>
<path d="M121.62 127.054C123.688 128.124 124.306 130.816 122.875 132.517C120.082 135.838 114.88 132.087 117.139 128.38C118.079 126.838 120.065 126.25 121.62 127.054Z" stroke="#F73C3E" stroke-width="0.0695649" mask="url(#path-3-inside-1_3913_105)"/>
<path d="M177.966 127.382C179.065 128.181 179.68 130.004 179.271 131.246C178.883 132.423 177.648 133.545 176.455 133.808C174.722 134.188 172.232 132.131 172.232 130.318C172.232 129.195 173.15 127.726 174.222 127.136C175.364 126.506 176.901 126.607 177.966 127.382Z" stroke="#F73C3E" stroke-width="0.0695649" mask="url(#path-3-inside-1_3913_105)"/>
<path fill-rule="evenodd" clip-rule="evenodd" d="M157.333 76.1597C161.02 76.5607 164.511 77.2657 167.242 78.1608C167.977 78.4012 168.578 78.636 168.578 78.6824C168.578 78.7285 168.267 79.4458 167.887 80.2765C166.617 83.0531 166.251 85.1123 166.396 88.6689C166.501 91.2115 166.682 92.3186 167.237 93.8059C169.235 99.1619 173.519 103.357 178.698 105.028C181.252 105.852 186.087 106.054 188.542 105.439C191.082 104.803 194.671 102.98 196.344 101.475L197.753 100.208L199.788 102.904C203.897 108.349 209.052 116.395 212.929 123.413C214.735 126.685 216.429 130.05 216.316 130.144C216.267 130.185 215.531 130.44 214.681 130.712C208.977 132.536 204.326 137.122 202.557 142.667C201.726 145.271 201.557 149.086 202.154 151.77C203.113 156.08 205.893 160.052 209.839 162.749C211.831 164.111 215.871 165.712 217.352 165.726C219.195 165.743 218.987 166.184 216.572 167.381C209.282 170.993 200.246 171.17 193.578 167.83C189.284 165.68 185.227 162.035 183.722 158.976L182.997 157.5L182.81 158.907C181.803 166.498 175.633 172.815 166.253 175.859C160.709 177.658 158.31 177.957 149.462 177.957C142.278 177.957 141.13 177.892 138.351 177.328C131.084 175.853 125.888 173.328 121.958 169.359C119.062 166.436 117.069 162.891 116.666 159.949C116.572 159.259 116.391 158.695 116.265 158.695C116.139 158.695 115.664 159.233 115.209 159.89C114.059 161.552 110.593 164.828 108.467 166.262C101.21 171.159 92.6282 171.434 83.3265 167.067L80.8645 165.911L83.4775 165.036C88.1342 163.476 91.8166 160.452 93.9087 156.47C98.2477 148.21 95.8489 138.18 88.3313 133.151C87.1621 132.369 85.4476 131.452 84.521 131.114C83.5947 130.776 82.8365 130.452 82.8365 130.393C82.8365 130.099 87.0567 121.904 88.5354 119.327C91.0145 115.006 94.603 109.586 97.8415 105.271C99.4068 103.185 100.768 101.367 100.865 101.23C100.964 101.093 101.723 101.489 102.552 102.108C105.823 104.552 108.63 105.55 112.776 105.744C116.499 105.918 118.794 105.461 121.912 103.923C124.424 102.685 127.768 99.6298 129.186 97.2762C132.129 92.3948 132.645 86.6266 130.61 81.3732C130.162 80.2177 129.887 79.186 130 79.0806C130.417 78.6905 134.873 77.4398 137.834 76.8819C143.933 75.7326 150.998 75.4708 157.333 76.1597ZM149.321 115.486C141.982 115.486 140.479 105.115 147.494 102.876C149.927 102.1 152.546 102.918 154.339 105.013C157.855 109.122 154.806 115.486 149.321 115.486ZM113.731 132.825C114.456 129.333 116.47 126.316 118.872 125.118C120.555 124.279 122.755 124.146 124.294 124.789C125.571 125.323 127.63 127.253 128.467 128.701C129.706 130.844 130.187 132.772 130.196 135.637C130.213 140.737 128.352 144.613 125.014 146.43C123.71 147.14 123.333 147.214 121.486 147.121C119.734 147.032 119.233 146.886 118.209 146.166C116.581 145.022 115.016 142.888 114.301 140.839C113.574 138.752 113.299 134.899 113.731 132.825ZM169.401 138.335C168.387 132.442 171.138 126.272 175.465 124.733C178 123.832 181.229 124.812 183.051 127.036C188.953 134.241 185.439 147.222 177.587 147.222C173.609 147.222 170.314 143.645 169.401 138.335ZM139.924 149.826C139.246 148.016 139.217 147.684 139.691 147.21C139.883 147.018 140.333 146.898 140.691 146.943C141.195 147.007 141.495 147.402 142.015 148.686C142.904 150.88 144.019 152.21 145.691 153.07C146.837 153.659 147.452 153.774 149.456 153.774C151.513 153.774 152.079 153.662 153.462 152.983C155.398 152.032 156.584 150.675 157.379 148.502C157.859 147.19 158.089 146.885 158.601 146.885C161.482 146.885 158.602 152.945 154.794 154.896C151.859 156.401 147.702 156.53 144.901 155.205C142.856 154.237 140.703 151.911 139.924 149.826Z" stroke="#F73C3E" stroke-width="0.0695649" mask="url(#path-3-inside-1_3913_105)"/>
<mask id="path-4-outside-2_3913_105" maskUnits="userSpaceOnUse" x="70" y="72" width="159" height="156" fill="black">
<rect fill="white" x="70" y="72" width="159" height="156"/>
<path fill-rule="evenodd" clip-rule="evenodd" d="M143.375 75.1921C129.473 76.4373 117.17 82.8366 105.466 94.9093C97.8579 102.758 91.2844 112.029 85.1623 123.545C81.2015 130.996 76.2643 142.798 73.8158 150.669C72.1115 156.147 73.0247 159.885 77.0557 163.933C78.7612 165.645 79.5622 166.186 82.5633 167.652L86.0752 169.368L87.1563 171.481C88.3668 173.847 90.1887 175.688 92.305 176.682C94.3547 177.646 98.3461 178.298 106.395 178.986C110.931 179.373 113.778 179.73 113.778 179.91C113.778 180.071 113.151 182.229 112.385 184.704C110.73 190.053 110.404 191.887 110.415 195.814C110.45 209.34 119.35 220.838 132.57 224.435L135.293 225.176L149.656 225.274C162.989 225.365 164.209 225.333 166.671 224.827C172.433 223.644 177.306 220.941 181.21 216.762C185.307 212.377 187.714 207.191 188.368 201.339C188.843 197.088 188.421 193.563 186.681 187.237C185.915 184.453 185.202 181.781 185.096 181.299L184.904 180.422L187.52 180.223C195.935 179.581 203.089 178.178 206.35 176.529C207.617 175.887 211.402 172.055 212.125 170.68C212.34 170.271 213.188 169.765 214.515 169.253C217.605 168.061 220.824 166.056 222.388 164.349C225.09 161.397 226.49 157.334 226.149 153.427C225.913 150.72 222.999 142.176 220.225 136.058C214.175 122.713 207.841 112.029 199.385 100.905C195.792 96.1789 192.787 92.8622 189.546 90.0457C180.567 82.2435 171.041 77.5191 160.741 75.7593C156.658 75.0619 147.989 74.7788 143.375 75.1921ZM157.37 76.1597C161.059 76.5607 164.552 77.2657 167.284 78.1608C168.019 78.4012 168.62 78.636 168.62 78.6824C168.62 78.7285 168.309 79.4458 167.929 80.2765C166.658 83.0531 166.293 85.1123 166.438 88.6689C166.542 91.2115 166.723 92.3186 167.279 93.8059C169.278 99.1619 173.564 103.357 178.745 105.028C181.3 105.852 186.137 106.054 188.594 105.439C191.135 104.803 194.725 102.98 196.399 101.475L197.809 100.208L199.844 102.904C203.955 108.349 209.113 116.395 212.991 123.413C214.798 126.685 216.492 130.05 216.379 130.144C216.331 130.185 215.595 130.44 214.744 130.712C209.038 132.536 204.385 137.122 202.615 142.667C201.783 145.271 201.615 149.086 202.212 151.77C203.171 156.08 205.952 160.052 209.899 162.749C211.893 164.111 215.935 165.712 217.416 165.726C219.26 165.743 219.052 166.184 216.636 167.381C209.342 170.993 200.303 171.17 193.631 167.83C189.336 165.68 185.277 162.035 183.772 158.976L183.672 158.774C183.484 158.392 182.915 158.485 182.859 158.907V158.907C181.852 166.498 175.679 172.815 166.294 175.859C160.748 177.658 158.348 177.957 149.496 177.957C142.309 177.957 141.16 177.892 138.38 177.328C131.11 175.853 125.912 173.328 121.98 169.359C119.083 166.436 117.089 162.891 116.685 159.949C116.591 159.259 116.41 158.695 116.284 158.695C116.158 158.695 115.683 159.233 115.227 159.89C114.077 161.552 110.61 164.828 108.483 166.262C101.222 171.159 92.6369 171.434 83.3311 167.067L80.868 165.911L83.4821 165.036C88.1409 163.476 91.8249 160.452 93.918 156.47C98.2589 148.21 95.8591 138.18 88.3381 133.151C87.1684 132.369 85.4531 131.452 84.5261 131.114C83.5994 130.776 82.8409 130.452 82.8409 130.393C82.8409 130.099 87.0629 121.904 88.5423 119.327C91.0226 115.006 94.6126 109.586 97.8525 105.271C99.4185 103.185 100.78 101.367 100.878 101.23C100.976 101.093 101.735 101.489 102.565 102.108C105.838 104.552 108.646 105.55 112.793 105.744C116.518 105.918 118.815 105.461 121.934 103.923C124.447 102.685 127.792 99.6298 129.211 97.2762C132.156 92.3948 132.672 86.6266 130.635 81.3732C130.187 80.2177 129.913 79.186 130.025 79.0806C130.442 78.6905 134.901 77.4398 137.863 76.8819C143.964 75.7326 151.032 75.4708 157.37 76.1597ZM171.787 79.9323C179.298 82.9156 187.831 88.9937 193.735 95.5656C195.124 97.1122 196.458 98.6788 196.7 99.0466C197.121 99.6906 197.098 99.7488 196.068 100.593C194.178 102.144 191.594 103.589 189.573 104.225C186.723 105.123 181.924 105.107 179.167 104.191C172.103 101.845 167.225 95.3247 167.138 88.1138C167.122 86.7992 167.276 85.0277 167.48 84.177C167.858 82.604 169.305 79.1154 169.579 79.1154C169.662 79.1154 170.656 79.483 171.787 79.9323ZM129.533 80.8906C132.053 86.5872 131.162 93.3408 127.216 98.4564C122.92 104.026 114.772 106.394 107.974 104.047C105.842 103.311 105.137 102.929 103.034 101.371L101.711 100.392L102.893 98.9732C106.794 94.2904 113.611 88.2795 119.121 84.6649C121.986 82.7857 127.885 79.6953 128.629 79.6835C128.831 79.6804 129.238 80.2236 129.533 80.8906ZM147.527 102.876C140.509 105.115 142.013 115.486 149.355 115.486C154.843 115.486 157.893 109.122 154.375 105.013C152.581 102.918 149.961 102.1 147.527 102.876ZM152.081 104.178C153.459 104.87 154.47 106.249 154.87 107.98C155.541 110.886 153.645 113.821 150.63 114.544C147.128 115.384 143.831 112.726 143.831 109.063C143.831 104.75 148.14 102.197 152.081 104.178ZM118.892 125.118C116.489 126.316 114.475 129.333 113.749 132.825C113.317 134.899 113.592 138.752 114.32 140.839C115.034 142.888 116.6 145.022 118.229 146.166C119.253 146.886 119.754 147.032 121.507 147.121C123.356 147.214 123.733 147.14 125.037 146.43C128.377 144.613 130.238 140.737 130.222 135.637C130.212 132.772 129.731 130.844 128.492 128.701C127.655 127.253 125.594 125.323 124.316 124.789C122.777 124.146 120.576 124.279 118.892 125.118ZM175.511 124.733C171.181 126.272 168.43 132.442 169.444 138.335C170.357 143.645 173.654 147.222 177.633 147.222C185.489 147.222 189.005 134.241 183.1 127.036C181.277 124.812 178.046 123.832 175.511 124.733ZM218.546 134.723C220.59 139.256 222.816 144.971 224.16 149.134C225.133 152.149 225.197 152.558 225.102 155.18C225.009 157.721 224.901 158.2 223.976 160.145C222.748 162.729 220.558 165.163 219.461 165.163C217.587 165.163 214.161 164.25 211.932 163.157C207.701 161.083 204.271 156.879 203.096 152.328C202.844 151.348 202.651 149.455 202.651 147.958C202.651 143.246 204.001 139.765 207.121 136.437C209.224 134.193 211.241 132.834 213.975 131.818C216.858 130.747 216.712 130.654 218.546 134.723ZM85.6328 132.583C90.2691 134.823 94.0026 139.626 94.9532 144.574C96.3524 151.859 92.4032 159.832 85.794 163.066C83.8385 164.023 81.0328 164.882 79.8611 164.882C78.9409 164.882 76.0165 161.595 74.9281 159.338C73.4687 156.312 73.4893 154.673 75.0465 149.978C77.8798 141.436 82.0582 131.419 82.7883 131.419C83.0268 131.419 84.3067 131.943 85.6328 132.583ZM139.72 147.21C139.246 147.684 139.276 148.016 139.953 149.826C140.733 151.911 142.888 154.237 144.933 155.205C147.735 156.53 151.894 156.401 154.83 154.896C158.64 152.945 161.521 146.885 158.639 146.885C158.127 146.885 157.897 147.19 157.417 148.502C156.621 150.675 155.434 152.032 153.498 152.983C152.114 153.662 151.548 153.774 149.49 153.774C147.485 153.774 146.869 153.659 145.723 153.07C144.051 152.21 142.935 150.88 142.046 148.686C141.525 147.402 141.225 147.007 140.721 146.943C140.363 146.898 139.913 147.018 139.72 147.21ZM187.229 164.46C189.803 166.86 193.186 168.822 196.745 169.977C198.949 170.693 200.034 170.871 202.948 170.995C206.115 171.129 209.289 170.854 210.663 170.327C211.52 169.999 211.039 170.746 208.942 173.002C206.548 175.579 205.703 176.099 202.311 177.082C199.135 178.002 188.486 179.504 185.136 179.504C184.518 179.504 184.377 179.122 182.709 172.929C181.051 166.773 180.966 166.312 181.375 165.688C181.73 165.146 182.58 163.051 183.401 160.698C183.49 160.443 183.805 160.682 184.327 161.401C184.762 162.001 186.068 163.377 187.229 164.46ZM116.44 162.14C116.702 162.952 117.227 164.177 117.607 164.864L118.296 166.111L116.408 172.175C115.37 175.51 114.429 178.346 114.317 178.478C114.091 178.744 104.157 178.017 99.3122 177.38C93.9312 176.672 91.7912 175.812 89.665 173.506C88.547 172.293 87.1765 170.013 87.4195 169.77C87.4845 169.706 88.664 169.922 90.0407 170.252C93.2891 171.03 98.1583 171.082 100.957 170.369C105.786 169.138 110.069 166.612 113.496 162.974C114.657 161.742 115.686 160.719 115.784 160.699C115.883 160.68 116.178 161.328 116.44 162.14ZM123.651 171.971C128.282 175.503 134.76 177.865 141.961 178.645C145.463 179.025 153.38 179.026 157.13 178.647C166.077 177.744 173.442 174.631 178.31 169.697C179.386 168.606 180.303 167.752 180.349 167.798C180.428 167.877 180.78 169.15 184.049 181.191C187.699 194.634 188.051 196.694 187.476 201.244C186.683 207.51 184.089 212.691 179.549 217.074C176.278 220.232 172.331 222.482 167.917 223.704C165.775 224.297 165.045 224.332 152.73 224.432C144.733 224.497 138.824 224.424 137.256 224.24C130.065 223.399 124.046 220.476 119.343 215.54C115.816 211.84 113.507 207.693 112.195 202.703C111.564 200.305 111.453 199.29 111.443 195.814C111.427 190.913 111.467 190.733 115.081 179.223C116.563 174.506 118.02 169.855 118.319 168.888L118.863 167.13L120.218 168.757C120.963 169.652 122.508 171.098 123.651 171.971Z"/>
</mask>
<path fill-rule="evenodd" clip-rule="evenodd" d="M143.375 75.1921C129.473 76.4373 117.17 82.8366 105.466 94.9093C97.8579 102.758 91.2844 112.029 85.1623 123.545C81.2015 130.996 76.2643 142.798 73.8158 150.669C72.1115 156.147 73.0247 159.885 77.0557 163.933C78.7612 165.645 79.5622 166.186 82.5633 167.652L86.0752 169.368L87.1563 171.481C88.3668 173.847 90.1887 175.688 92.305 176.682C94.3547 177.646 98.3461 178.298 106.395 178.986C110.931 179.373 113.778 179.73 113.778 179.91C113.778 180.071 113.151 182.229 112.385 184.704C110.73 190.053 110.404 191.887 110.415 195.814C110.45 209.34 119.35 220.838 132.57 224.435L135.293 225.176L149.656 225.274C162.989 225.365 164.209 225.333 166.671 224.827C172.433 223.644 177.306 220.941 181.21 216.762C185.307 212.377 187.714 207.191 188.368 201.339C188.843 197.088 188.421 193.563 186.681 187.237C185.915 184.453 185.202 181.781 185.096 181.299L184.904 180.422L187.52 180.223C195.935 179.581 203.089 178.178 206.35 176.529C207.617 175.887 211.402 172.055 212.125 170.68C212.34 170.271 213.188 169.765 214.515 169.253C217.605 168.061 220.824 166.056 222.388 164.349C225.09 161.397 226.49 157.334 226.149 153.427C225.913 150.72 222.999 142.176 220.225 136.058C214.175 122.713 207.841 112.029 199.385 100.905C195.792 96.1789 192.787 92.8622 189.546 90.0457C180.567 82.2435 171.041 77.5191 160.741 75.7593C156.658 75.0619 147.989 74.7788 143.375 75.1921ZM157.37 76.1597C161.059 76.5607 164.552 77.2657 167.284 78.1608C168.019 78.4012 168.62 78.636 168.62 78.6824C168.62 78.7285 168.309 79.4458 167.929 80.2765C166.658 83.0531 166.293 85.1123 166.438 88.6689C166.542 91.2115 166.723 92.3186 167.279 93.8059C169.278 99.1619 173.564 103.357 178.745 105.028C181.3 105.852 186.137 106.054 188.594 105.439C191.135 104.803 194.725 102.98 196.399 101.475L197.809 100.208L199.844 102.904C203.955 108.349 209.113 116.395 212.991 123.413C214.798 126.685 216.492 130.05 216.379 130.144C216.331 130.185 215.595 130.44 214.744 130.712C209.038 132.536 204.385 137.122 202.615 142.667C201.783 145.271 201.615 149.086 202.212 151.77C203.171 156.08 205.952 160.052 209.899 162.749C211.893 164.111 215.935 165.712 217.416 165.726C219.26 165.743 219.052 166.184 216.636 167.381C209.342 170.993 200.303 171.17 193.631 167.83C189.336 165.68 185.277 162.035 183.772 158.976L183.672 158.774C183.484 158.392 182.915 158.485 182.859 158.907V158.907C181.852 166.498 175.679 172.815 166.294 175.859C160.748 177.658 158.348 177.957 149.496 177.957C142.309 177.957 141.16 177.892 138.38 177.328C131.11 175.853 125.912 173.328 121.98 169.359C119.083 166.436 117.089 162.891 116.685 159.949C116.591 159.259 116.41 158.695 116.284 158.695C116.158 158.695 115.683 159.233 115.227 159.89C114.077 161.552 110.61 164.828 108.483 166.262C101.222 171.159 92.6369 171.434 83.3311 167.067L80.868 165.911L83.4821 165.036C88.1409 163.476 91.8249 160.452 93.918 156.47C98.2589 148.21 95.8591 138.18 88.3381 133.151C87.1684 132.369 85.4531 131.452 84.5261 131.114C83.5994 130.776 82.8409 130.452 82.8409 130.393C82.8409 130.099 87.0629 121.904 88.5423 119.327C91.0226 115.006 94.6126 109.586 97.8525 105.271C99.4185 103.185 100.78 101.367 100.878 101.23C100.976 101.093 101.735 101.489 102.565 102.108C105.838 104.552 108.646 105.55 112.793 105.744C116.518 105.918 118.815 105.461 121.934 103.923C124.447 102.685 127.792 99.6298 129.211 97.2762C132.156 92.3948 132.672 86.6266 130.635 81.3732C130.187 80.2177 129.913 79.186 130.025 79.0806C130.442 78.6905 134.901 77.4398 137.863 76.8819C143.964 75.7326 151.032 75.4708 157.37 76.1597ZM171.787 79.9323C179.298 82.9156 187.831 88.9937 193.735 95.5656C195.124 97.1122 196.458 98.6788 196.7 99.0466C197.121 99.6906 197.098 99.7488 196.068 100.593C194.178 102.144 191.594 103.589 189.573 104.225C186.723 105.123 181.924 105.107 179.167 104.191C172.103 101.845 167.225 95.3247 167.138 88.1138C167.122 86.7992 167.276 85.0277 167.48 84.177C167.858 82.604 169.305 79.1154 169.579 79.1154C169.662 79.1154 170.656 79.483 171.787 79.9323ZM129.533 80.8906C132.053 86.5872 131.162 93.3408 127.216 98.4564C122.92 104.026 114.772 106.394 107.974 104.047C105.842 103.311 105.137 102.929 103.034 101.371L101.711 100.392L102.893 98.9732C106.794 94.2904 113.611 88.2795 119.121 84.6649C121.986 82.7857 127.885 79.6953 128.629 79.6835C128.831 79.6804 129.238 80.2236 129.533 80.8906ZM147.527 102.876C140.509 105.115 142.013 115.486 149.355 115.486C154.843 115.486 157.893 109.122 154.375 105.013C152.581 102.918 149.961 102.1 147.527 102.876ZM152.081 104.178C153.459 104.87 154.47 106.249 154.87 107.98C155.541 110.886 153.645 113.821 150.63 114.544C147.128 115.384 143.831 112.726 143.831 109.063C143.831 104.75 148.14 102.197 152.081 104.178ZM118.892 125.118C116.489 126.316 114.475 129.333 113.749 132.825C113.317 134.899 113.592 138.752 114.32 140.839C115.034 142.888 116.6 145.022 118.229 146.166C119.253 146.886 119.754 147.032 121.507 147.121C123.356 147.214 123.733 147.14 125.037 146.43C128.377 144.613 130.238 140.737 130.222 135.637C130.212 132.772 129.731 130.844 128.492 128.701C127.655 127.253 125.594 125.323 124.316 124.789C122.777 124.146 120.576 124.279 118.892 125.118ZM175.511 124.733C171.181 126.272 168.43 132.442 169.444 138.335C170.357 143.645 173.654 147.222 177.633 147.222C185.489 147.222 189.005 134.241 183.1 127.036C181.277 124.812 178.046 123.832 175.511 124.733ZM218.546 134.723C220.59 139.256 222.816 144.971 224.16 149.134C225.133 152.149 225.197 152.558 225.102 155.18C225.009 157.721 224.901 158.2 223.976 160.145C222.748 162.729 220.558 165.163 219.461 165.163C217.587 165.163 214.161 164.25 211.932 163.157C207.701 161.083 204.271 156.879 203.096 152.328C202.844 151.348 202.651 149.455 202.651 147.958C202.651 143.246 204.001 139.765 207.121 136.437C209.224 134.193 211.241 132.834 213.975 131.818C216.858 130.747 216.712 130.654 218.546 134.723ZM85.6328 132.583C90.2691 134.823 94.0026 139.626 94.9532 144.574C96.3524 151.859 92.4032 159.832 85.794 163.066C83.8385 164.023 81.0328 164.882 79.8611 164.882C78.9409 164.882 76.0165 161.595 74.9281 159.338C73.4687 156.312 73.4893 154.673 75.0465 149.978C77.8798 141.436 82.0582 131.419 82.7883 131.419C83.0268 131.419 84.3067 131.943 85.6328 132.583ZM139.72 147.21C139.246 147.684 139.276 148.016 139.953 149.826C140.733 151.911 142.888 154.237 144.933 155.205C147.735 156.53 151.894 156.401 154.83 154.896C158.64 152.945 161.521 146.885 158.639 146.885C158.127 146.885 157.897 147.19 157.417 148.502C156.621 150.675 155.434 152.032 153.498 152.983C152.114 153.662 151.548 153.774 149.49 153.774C147.485 153.774 146.869 153.659 145.723 153.07C144.051 152.21 142.935 150.88 142.046 148.686C141.525 147.402 141.225 147.007 140.721 146.943C140.363 146.898 139.913 147.018 139.72 147.21ZM187.229 164.46C189.803 166.86 193.186 168.822 196.745 169.977C198.949 170.693 200.034 170.871 202.948 170.995C206.115 171.129 209.289 170.854 210.663 170.327C211.52 169.999 211.039 170.746 208.942 173.002C206.548 175.579 205.703 176.099 202.311 177.082C199.135 178.002 188.486 179.504 185.136 179.504C184.518 179.504 184.377 179.122 182.709 172.929C181.051 166.773 180.966 166.312 181.375 165.688C181.73 165.146 182.58 163.051 183.401 160.698C183.49 160.443 183.805 160.682 184.327 161.401C184.762 162.001 186.068 163.377 187.229 164.46ZM116.44 162.14C116.702 162.952 117.227 164.177 117.607 164.864L118.296 166.111L116.408 172.175C115.37 175.51 114.429 178.346 114.317 178.478C114.091 178.744 104.157 178.017 99.3122 177.38C93.9312 176.672 91.7912 175.812 89.665 173.506C88.547 172.293 87.1765 170.013 87.4195 169.77C87.4845 169.706 88.664 169.922 90.0407 170.252C93.2891 171.03 98.1583 171.082 100.957 170.369C105.786 169.138 110.069 166.612 113.496 162.974C114.657 161.742 115.686 160.719 115.784 160.699C115.883 160.68 116.178 161.328 116.44 162.14ZM123.651 171.971C128.282 175.503 134.76 177.865 141.961 178.645C145.463 179.025 153.38 179.026 157.13 178.647C166.077 177.744 173.442 174.631 178.31 169.697C179.386 168.606 180.303 167.752 180.349 167.798C180.428 167.877 180.78 169.15 184.049 181.191C187.699 194.634 188.051 196.694 187.476 201.244C186.683 207.51 184.089 212.691 179.549 217.074C176.278 220.232 172.331 222.482 167.917 223.704C165.775 224.297 165.045 224.332 152.73 224.432C144.733 224.497 138.824 224.424 137.256 224.24C130.065 223.399 124.046 220.476 119.343 215.54C115.816 211.84 113.507 207.693 112.195 202.703C111.564 200.305 111.453 199.29 111.443 195.814C111.427 190.913 111.467 190.733 115.081 179.223C116.563 174.506 118.02 169.855 118.319 168.888L118.863 167.13L120.218 168.757C120.963 169.652 122.508 171.098 123.651 171.971Z" fill="#F73C3E"/>
<path fill-rule="evenodd" clip-rule="evenodd" d="M143.375 75.1921C129.473 76.4373 117.17 82.8366 105.466 94.9093C97.8579 102.758 91.2844 112.029 85.1623 123.545C81.2015 130.996 76.2643 142.798 73.8158 150.669C72.1115 156.147 73.0247 159.885 77.0557 163.933C78.7612 165.645 79.5622 166.186 82.5633 167.652L86.0752 169.368L87.1563 171.481C88.3668 173.847 90.1887 175.688 92.305 176.682C94.3547 177.646 98.3461 178.298 106.395 178.986C110.931 179.373 113.778 179.73 113.778 179.91C113.778 180.071 113.151 182.229 112.385 184.704C110.73 190.053 110.404 191.887 110.415 195.814C110.45 209.34 119.35 220.838 132.57 224.435L135.293 225.176L149.656 225.274C162.989 225.365 164.209 225.333 166.671 224.827C172.433 223.644 177.306 220.941 181.21 216.762C185.307 212.377 187.714 207.191 188.368 201.339C188.843 197.088 188.421 193.563 186.681 187.237C185.915 184.453 185.202 181.781 185.096 181.299L184.904 180.422L187.52 180.223C195.935 179.581 203.089 178.178 206.35 176.529C207.617 175.887 211.402 172.055 212.125 170.68C212.34 170.271 213.188 169.765 214.515 169.253C217.605 168.061 220.824 166.056 222.388 164.349C225.09 161.397 226.49 157.334 226.149 153.427C225.913 150.72 222.999 142.176 220.225 136.058C214.175 122.713 207.841 112.029 199.385 100.905C195.792 96.1789 192.787 92.8622 189.546 90.0457C180.567 82.2435 171.041 77.5191 160.741 75.7593C156.658 75.0619 147.989 74.7788 143.375 75.1921ZM157.37 76.1597C161.059 76.5607 164.552 77.2657 167.284 78.1608C168.019 78.4012 168.62 78.636 168.62 78.6824C168.62 78.7285 168.309 79.4458 167.929 80.2765C166.658 83.0531 166.293 85.1123 166.438 88.6689C166.542 91.2115 166.723 92.3186 167.279 93.8059C169.278 99.1619 173.564 103.357 178.745 105.028C181.3 105.852 186.137 106.054 188.594 105.439C191.135 104.803 194.725 102.98 196.399 101.475L197.809 100.208L199.844 102.904C203.955 108.349 209.113 116.395 212.991 123.413C214.798 126.685 216.492 130.05 216.379 130.144C216.331 130.185 215.595 130.44 214.744 130.712C209.038 132.536 204.385 137.122 202.615 142.667C201.783 145.271 201.615 149.086 202.212 151.77C203.171 156.08 205.952 160.052 209.899 162.749C211.893 164.111 215.935 165.712 217.416 165.726C219.26 165.743 219.052 166.184 216.636 167.381C209.342 170.993 200.303 171.17 193.631 167.83C189.336 165.68 185.277 162.035 183.772 158.976L183.672 158.774C183.484 158.392 182.915 158.485 182.859 158.907V158.907C181.852 166.498 175.679 172.815 166.294 175.859C160.748 177.658 158.348 177.957 149.496 177.957C142.309 177.957 141.16 177.892 138.38 177.328C131.11 175.853 125.912 173.328 121.98 169.359C119.083 166.436 117.089 162.891 116.685 159.949C116.591 159.259 116.41 158.695 116.284 158.695C116.158 158.695 115.683 159.233 115.227 159.89C114.077 161.552 110.61 164.828 108.483 166.262C101.222 171.159 92.6369 171.434 83.3311 167.067L80.868 165.911L83.4821 165.036C88.1409 163.476 91.8249 160.452 93.918 156.47C98.2589 148.21 95.8591 138.18 88.3381 133.151C87.1684 132.369 85.4531 131.452 84.5261 131.114C83.5994 130.776 82.8409 130.452 82.8409 130.393C82.8409 130.099 87.0629 121.904 88.5423 119.327C91.0226 115.006 94.6126 109.586 97.8525 105.271C99.4185 103.185 100.78 101.367 100.878 101.23C100.976 101.093 101.735 101.489 102.565 102.108C105.838 104.552 108.646 105.55 112.793 105.744C116.518 105.918 118.815 105.461 121.934 103.923C124.447 102.685 127.792 99.6298 129.211 97.2762C132.156 92.3948 132.672 86.6266 130.635 81.3732C130.187 80.2177 129.913 79.186 130.025 79.0806C130.442 78.6905 134.901 77.4398 137.863 76.8819C143.964 75.7326 151.032 75.4708 157.37 76.1597ZM171.787 79.9323C179.298 82.9156 187.831 88.9937 193.735 95.5656C195.124 97.1122 196.458 98.6788 196.7 99.0466C197.121 99.6906 197.098 99.7488 196.068 100.593C194.178 102.144 191.594 103.589 189.573 104.225C186.723 105.123 181.924 105.107 179.167 104.191C172.103 101.845 167.225 95.3247 167.138 88.1138C167.122 86.7992 167.276 85.0277 167.48 84.177C167.858 82.604 169.305 79.1154 169.579 79.1154C169.662 79.1154 170.656 79.483 171.787 79.9323ZM129.533 80.8906C132.053 86.5872 131.162 93.3408 127.216 98.4564C122.92 104.026 114.772 106.394 107.974 104.047C105.842 103.311 105.137 102.929 103.034 101.371L101.711 100.392L102.893 98.9732C106.794 94.2904 113.611 88.2795 119.121 84.6649C121.986 82.7857 127.885 79.6953 128.629 79.6835C128.831 79.6804 129.238 80.2236 129.533 80.8906ZM147.527 102.876C140.509 105.115 142.013 115.486 149.355 115.486C154.843 115.486 157.893 109.122 154.375 105.013C152.581 102.918 149.961 102.1 147.527 102.876ZM152.081 104.178C153.459 104.87 154.47 106.249 154.87 107.98C155.541 110.886 153.645 113.821 150.63 114.544C147.128 115.384 143.831 112.726 143.831 109.063C143.831 104.75 148.14 102.197 152.081 104.178ZM118.892 125.118C116.489 126.316 114.475 129.333 113.749 132.825C113.317 134.899 113.592 138.752 114.32 140.839C115.034 142.888 116.6 145.022 118.229 146.166C119.253 146.886 119.754 147.032 121.507 147.121C123.356 147.214 123.733 147.14 125.037 146.43C128.377 144.613 130.238 140.737 130.222 135.637C130.212 132.772 129.731 130.844 128.492 128.701C127.655 127.253 125.594 125.323 124.316 124.789C122.777 124.146 120.576 124.279 118.892 125.118ZM175.511 124.733C171.181 126.272 168.43 132.442 169.444 138.335C170.357 143.645 173.654 147.222 177.633 147.222C185.489 147.222 189.005 134.241 183.1 127.036C181.277 124.812 178.046 123.832 175.511 124.733ZM218.546 134.723C220.59 139.256 222.816 144.971 224.16 149.134C225.133 152.149 225.197 152.558 225.102 155.18C225.009 157.721 224.901 158.2 223.976 160.145C222.748 162.729 220.558 165.163 219.461 165.163C217.587 165.163 214.161 164.25 211.932 163.157C207.701 161.083 204.271 156.879 203.096 152.328C202.844 151.348 202.651 149.455 202.651 147.958C202.651 143.246 204.001 139.765 207.121 136.437C209.224 134.193 211.241 132.834 213.975 131.818C216.858 130.747 216.712 130.654 218.546 134.723ZM85.6328 132.583C90.2691 134.823 94.0026 139.626 94.9532 144.574C96.3524 151.859 92.4032 159.832 85.794 163.066C83.8385 164.023 81.0328 164.882 79.8611 164.882C78.9409 164.882 76.0165 161.595 74.9281 159.338C73.4687 156.312 73.4893 154.673 75.0465 149.978C77.8798 141.436 82.0582 131.419 82.7883 131.419C83.0268 131.419 84.3067 131.943 85.6328 132.583ZM139.72 147.21C139.246 147.684 139.276 148.016 139.953 149.826C140.733 151.911 142.888 154.237 144.933 155.205C147.735 156.53 151.894 156.401 154.83 154.896C158.64 152.945 161.521 146.885 158.639 146.885C158.127 146.885 157.897 147.19 157.417 148.502C156.621 150.675 155.434 152.032 153.498 152.983C152.114 153.662 151.548 153.774 149.49 153.774C147.485 153.774 146.869 153.659 145.723 153.07C144.051 152.21 142.935 150.88 142.046 148.686C141.525 147.402 141.225 147.007 140.721 146.943C140.363 146.898 139.913 147.018 139.72 147.21ZM187.229 164.46C189.803 166.86 193.186 168.822 196.745 169.977C198.949 170.693 200.034 170.871 202.948 170.995C206.115 171.129 209.289 170.854 210.663 170.327C211.52 169.999 211.039 170.746 208.942 173.002C206.548 175.579 205.703 176.099 202.311 177.082C199.135 178.002 188.486 179.504 185.136 179.504C184.518 179.504 184.377 179.122 182.709 172.929C181.051 166.773 180.966 166.312 181.375 165.688C181.73 165.146 182.58 163.051 183.401 160.698C183.49 160.443 183.805 160.682 184.327 161.401C184.762 162.001 186.068 163.377 187.229 164.46ZM116.44 162.14C116.702 162.952 117.227 164.177 117.607 164.864L118.296 166.111L116.408 172.175C115.37 175.51 114.429 178.346 114.317 178.478C114.091 178.744 104.157 178.017 99.3122 177.38C93.9312 176.672 91.7912 175.812 89.665 173.506C88.547 172.293 87.1765 170.013 87.4195 169.77C87.4845 169.706 88.664 169.922 90.0407 170.252C93.2891 171.03 98.1583 171.082 100.957 170.369C105.786 169.138 110.069 166.612 113.496 162.974C114.657 161.742 115.686 160.719 115.784 160.699C115.883 160.68 116.178 161.328 116.44 162.14ZM123.651 171.971C128.282 175.503 134.76 177.865 141.961 178.645C145.463 179.025 153.38 179.026 157.13 178.647C166.077 177.744 173.442 174.631 178.31 169.697C179.386 168.606 180.303 167.752 180.349 167.798C180.428 167.877 180.78 169.15 184.049 181.191C187.699 194.634 188.051 196.694 187.476 201.244C186.683 207.51 184.089 212.691 179.549 217.074C176.278 220.232 172.331 222.482 167.917 223.704C165.775 224.297 165.045 224.332 152.73 224.432C144.733 224.497 138.824 224.424 137.256 224.24C130.065 223.399 124.046 220.476 119.343 215.54C115.816 211.84 113.507 207.693 112.195 202.703C111.564 200.305 111.453 199.29 111.443 195.814C111.427 190.913 111.467 190.733 115.081 179.223C116.563 174.506 118.02 169.855 118.319 168.888L118.863 167.13L120.218 168.757C120.963 169.652 122.508 171.098 123.651 171.971Z" stroke="#F73C3E" stroke-width="5" mask="url(#path-4-outside-2_3913_105)"/>
<path d="M123.207 129.717C123.207 131.374 121.864 132.717 120.207 132.717C118.55 132.717 117.207 131.374 117.207 129.717C117.207 128.06 118.55 126.717 120.207 126.717C121.864 126.717 123.207 128.06 123.207 129.717Z" fill="white"/>
<circle cx="175.207" cy="129.717" r="3" fill="white"/>
</svg>
