<svg width="17" height="18" fill="none" xmlns="http://www.w3.org/2000/svg"><g clip-path="url(#a)" stroke="currentColor" stroke-linecap="round" stroke-linejoin="round"><path d="M8.502 11.1a2.1 2.1 0 1 0 0-4.2 2.1 2.1 0 0 0 0 4.2Z"/><path d="M13.68 11.1a1.155 1.155 0 0 0 .232 1.274l.042.042a1.401 1.401 0 1 1-1.981 1.981l-.042-.042a1.155 1.155 0 0 0-1.274-.23 1.155 1.155 0 0 0-.7 1.056v.12a1.4 1.4 0 1 1-2.8 0v-.064A1.155 1.155 0 0 0 6.4 14.18a1.155 1.155 0 0 0-1.274.231l-.042.042a1.4 1.4 0 1 1-1.981-1.98l.042-.043a1.155 1.155 0 0 0 .23-1.274 1.155 1.155 0 0 0-1.056-.7H2.2a1.4 1.4 0 1 1 0-2.8h.064A1.155 1.155 0 0 0 3.32 6.9a1.155 1.155 0 0 0-.231-1.274l-.042-.042a1.4 1.4 0 1 1 1.98-1.98l.043.041a1.155 1.155 0 0 0 1.274.231H6.4a1.155 1.155 0 0 0 .7-1.057V2.7a1.4 1.4 0 0 1 2.8 0v.063a1.155 1.155 0 0 0 .7 1.057 1.155 1.155 0 0 0 1.274-.23l.042-.043a1.4 1.4 0 0 1 2.391.99 1.401 1.401 0 0 1-.41.991l-.042.042a1.155 1.155 0 0 0-.231 1.274V6.9a1.155 1.155 0 0 0 1.057.7h.119a1.4 1.4 0 1 1 0 2.8h-.063a1.155 1.155 0 0 0-1.057.7v0Z"/></g><defs><clipPath id="a"><path fill="#fff" transform="translate(.102 .6)" d="M0 0h16.8v16.8H0z"/></clipPath></defs></svg>